<svg width="274" height="84" viewBox="0 0 274 84" fill="none" xmlns="http://www.w3.org/2000/svg">
<rect width="274" height="84" rx="10" fill="#DB2877"/>
<ellipse cx="37.1818" cy="42" rx="26.1818" ry="27" fill="#B22767"/>
<path d="M37.1818 43.4167V27.8333L48.1717 33.5L37.1818 39.1667" stroke="white" stroke-width="2" stroke-linecap="round" stroke-linejoin="round"/>
<path d="M48.9424 39.4812C49.6734 41.8047 49.7418 44.2959 49.1395 46.6584C48.5371 49.0208 47.2893 51.1551 45.5445 52.8073C43.7998 54.4595 41.6315 55.56 39.2977 55.978C36.9639 56.396 34.5628 56.1138 32.38 55.1649C30.1973 54.2161 28.3247 52.6406 26.9852 50.6259C25.6458 48.6112 24.8957 46.2421 24.8243 43.8005C24.7528 41.3588 25.3631 38.9474 26.5824 36.8531C27.8016 34.7588 29.5787 33.0698 31.702 31.987" stroke="white" stroke-width="2" stroke-linecap="round" stroke-linejoin="round"/>
<path d="M31.6896 39.1624C31.0012 40.1074 30.5531 41.2149 30.386 42.3842C30.2189 43.5534 30.3382 44.7472 30.733 45.8568C31.1277 46.9664 31.7854 47.9564 32.6462 48.7368C33.5069 49.5171 34.5434 50.063 35.661 50.3246C36.7787 50.5862 37.942 50.5552 39.0451 50.2345C40.1482 49.9138 41.1559 49.3135 41.9765 48.4884C42.797 47.6633 43.4044 46.6396 43.7431 45.5105C44.0818 44.3814 44.1412 43.1829 43.9159 42.0241" stroke="white" stroke-width="2" stroke-linecap="round" stroke-linejoin="round"/>
<path d="M89.7879 24.1562C89.6885 23.8106 89.5488 23.5052 89.3689 23.2401C89.1889 22.9702 88.9688 22.7429 88.7083 22.5582C88.4527 22.3688 88.1591 22.2244 87.8277 22.125C87.501 22.0256 87.1387 21.9759 86.741 21.9759C85.9976 21.9759 85.3442 22.1605 84.7808 22.5298C84.2221 22.8991 83.7865 23.4366 83.474 24.142C83.1615 24.8428 83.0052 25.6998 83.0052 26.7131C83.0052 27.7263 83.1591 28.5881 83.4669 29.2983C83.7746 30.0085 84.2102 30.5507 84.7737 30.9247C85.3371 31.294 86.0024 31.4787 86.7694 31.4787C87.4654 31.4787 88.0597 31.3556 88.5521 31.1094C89.0493 30.8584 89.428 30.5057 89.6885 30.0511C89.9536 29.5966 90.0862 29.0592 90.0862 28.4389L90.7112 28.5312H86.9612V26.2159H93.0478V28.0483C93.0478 29.3267 92.7779 30.4252 92.2382 31.3438C91.6984 32.2576 90.955 32.9631 90.0081 33.4602C89.0611 33.9527 87.9768 34.1989 86.7552 34.1989C85.3916 34.1989 84.1937 33.8982 83.1615 33.2969C82.1293 32.6908 81.3243 31.8314 80.7467 30.7188C80.1738 29.6013 79.8873 28.2756 79.8873 26.7415C79.8873 25.5625 80.0578 24.5114 80.3987 23.5881C80.7443 22.66 81.2273 21.8741 81.8475 21.2301C82.4678 20.5862 83.1899 20.0961 84.0137 19.7599C84.8376 19.4238 85.7301 19.2557 86.6913 19.2557C87.5152 19.2557 88.2822 19.3764 88.9924 19.6179C89.7027 19.8546 90.3324 20.1908 90.8816 20.6264C91.4356 21.062 91.8878 21.5805 92.2382 22.1818C92.5886 22.7784 92.8135 23.4366 92.9129 24.1562H89.7879ZM101.601 19.4545V34H98.5255V22.3736H98.4402L95.1093 24.4616V21.7344L98.7101 19.4545H101.601Z" fill="white"/>
<path d="M82.6288 50.6842H79.9356V41.9569H82.7481C83.5947 41.9569 84.3191 42.1316 84.9214 42.4811C85.5237 42.8277 85.9853 43.3262 86.3064 43.9768C86.6274 44.6245 86.7879 45.4001 86.7879 46.3035C86.7879 47.2126 86.626 47.9953 86.3021 48.6515C85.9782 49.3049 85.5066 49.8078 84.8873 50.1601C84.268 50.5095 83.5152 50.6842 82.6288 50.6842ZM80.9924 49.7467H82.5606C83.2822 49.7467 83.8802 49.6075 84.3547 49.3291C84.8291 49.0507 85.1828 48.6544 85.4157 48.1402C85.6487 47.626 85.7652 47.0137 85.7652 46.3035C85.7652 45.599 85.6501 44.9924 85.42 44.4839C85.1899 43.9726 84.8461 43.5805 84.3887 43.3078C83.9314 43.0322 83.3618 42.8944 82.6799 42.8944H80.9924V49.7467ZM91.1686 50.8206C90.5379 50.8206 89.9939 50.6814 89.5365 50.403C89.0819 50.1217 88.7311 49.7297 88.4839 49.2268C88.2396 48.7211 88.1174 48.1331 88.1174 47.4626C88.1174 46.7922 88.2396 46.2012 88.4839 45.6899C88.7311 45.1757 89.0748 44.7751 89.5152 44.4882C89.9583 44.1984 90.4754 44.0535 91.0663 44.0535C91.4072 44.0535 91.7439 44.1103 92.0762 44.224C92.4086 44.3376 92.7112 44.5223 92.9839 44.778C93.2566 45.0308 93.474 45.366 93.6359 45.7836C93.7978 46.2012 93.8788 46.7155 93.8788 47.3262V47.7524H88.8333V46.8831H92.8561C92.8561 46.5137 92.7822 46.1842 92.6345 45.8944C92.4896 45.6047 92.2822 45.376 92.0123 45.2084C91.7453 45.0407 91.4299 44.9569 91.0663 44.9569C90.6657 44.9569 90.3191 45.0564 90.0265 45.2552C89.7368 45.4512 89.5137 45.7069 89.3575 46.0223C89.2012 46.3376 89.1231 46.6757 89.1231 47.0365V47.616C89.1231 48.1103 89.2083 48.5294 89.3788 48.8731C89.5521 49.214 89.7922 49.474 90.099 49.653C90.4058 49.8291 90.7623 49.9172 91.1686 49.9172C91.4328 49.9172 91.6714 49.8802 91.8845 49.8064C92.1004 49.7297 92.2865 49.616 92.4427 49.4655C92.599 49.312 92.7197 49.1217 92.8049 48.8944L93.7765 49.1672C93.6743 49.4967 93.5024 49.7865 93.2609 50.0365C93.0194 50.2836 92.7211 50.4768 92.366 50.616C92.0109 50.7524 91.6118 50.8206 91.1686 50.8206ZM100.045 45.6047L99.1416 45.8603C99.0848 45.7098 99.001 45.5635 98.8902 45.4214C98.7822 45.2765 98.6345 45.1572 98.447 45.0635C98.2595 44.9697 98.0194 44.9228 97.7268 44.9228C97.3262 44.9228 96.9924 45.0152 96.7254 45.1998C96.4612 45.3816 96.3291 45.6132 96.3291 45.8944C96.3291 46.1444 96.42 46.3419 96.6018 46.4868C96.7836 46.6316 97.0677 46.7524 97.4541 46.849L98.4257 47.0876C99.0109 47.2297 99.447 47.447 99.7339 47.7396C100.021 48.0294 100.164 48.403 100.164 48.8603C100.164 49.2353 100.056 49.5706 99.8404 49.866C99.6274 50.1615 99.3291 50.3944 98.9456 50.5649C98.562 50.7353 98.116 50.8206 97.6075 50.8206C96.9399 50.8206 96.3873 50.6757 95.9498 50.3859C95.5123 50.0961 95.2353 49.6728 95.1189 49.116L96.0734 48.8774C96.1643 49.2297 96.3362 49.4939 96.589 49.67C96.8447 49.8461 97.1785 49.9342 97.5904 49.9342C98.0592 49.9342 98.4314 49.8348 98.7069 49.6359C98.9853 49.4342 99.1245 49.1927 99.1245 48.9115C99.1245 48.6842 99.045 48.4939 98.8859 48.3405C98.7268 48.1842 98.4825 48.0677 98.1529 47.991L97.062 47.7353C96.4626 47.5933 96.0223 47.3731 95.741 47.0748C95.4626 46.7737 95.3234 46.3973 95.3234 45.9456C95.3234 45.5762 95.4271 45.2495 95.6345 44.9655C95.8447 44.6814 96.1302 44.4584 96.491 44.2964C96.8547 44.1345 97.2666 44.0535 97.7268 44.0535C98.3745 44.0535 98.8831 44.1956 99.2524 44.4797C99.6245 44.7637 99.8887 45.1387 100.045 45.6047ZM104.337 50.8206C103.724 50.8206 103.195 50.6757 102.752 50.3859C102.309 50.0961 101.968 49.697 101.729 49.1885C101.491 48.6799 101.371 48.099 101.371 47.4456C101.371 46.7808 101.494 46.1941 101.738 45.6856C101.985 45.1743 102.329 44.7751 102.769 44.4882C103.212 44.1984 103.729 44.0535 104.32 44.0535C104.78 44.0535 105.195 44.1387 105.565 44.3092C105.934 44.4797 106.236 44.7183 106.472 45.0251C106.708 45.3319 106.854 45.6899 106.911 46.099H105.905C105.829 45.8007 105.658 45.5365 105.394 45.3064C105.133 45.0734 104.78 44.9569 104.337 44.9569C103.945 44.9569 103.601 45.0592 103.306 45.2637C103.013 45.4655 102.785 45.751 102.62 46.1203C102.458 46.4868 102.377 46.9172 102.377 47.4115C102.377 47.9172 102.457 48.3575 102.616 48.7325C102.778 49.1075 103.005 49.3987 103.297 49.6061C103.593 49.8135 103.94 49.9172 104.337 49.9172C104.599 49.9172 104.836 49.8717 105.049 49.7808C105.262 49.6899 105.442 49.5592 105.59 49.3887C105.738 49.2183 105.843 49.0137 105.905 48.7751H106.911C106.854 49.1615 106.714 49.5095 106.489 49.8191C106.268 50.126 105.974 50.3703 105.607 50.5521C105.244 50.7311 104.82 50.8206 104.337 50.8206ZM108.381 50.6842V44.1387H109.353V45.1274H109.421C109.54 44.8035 109.756 44.5407 110.069 44.339C110.381 44.1373 110.734 44.0365 111.126 44.0365C111.199 44.0365 111.292 44.0379 111.403 44.0407C111.513 44.0436 111.597 44.0478 111.654 44.0535V45.0762C111.62 45.0677 111.542 45.0549 111.42 45.0379C111.3 45.018 111.174 45.0081 111.04 45.0081C110.722 45.0081 110.438 45.0748 110.188 45.2084C109.941 45.339 109.745 45.5209 109.6 45.7538C109.458 45.9839 109.387 46.2467 109.387 46.5422V50.6842H108.381ZM112.846 50.6842V44.1387H113.852V50.6842H112.846ZM113.357 43.0478C113.161 43.0478 112.992 42.9811 112.85 42.8476C112.711 42.714 112.642 42.5535 112.642 42.366C112.642 42.1785 112.711 42.018 112.85 41.8845C112.992 41.751 113.161 41.6842 113.357 41.6842C113.554 41.6842 113.721 41.751 113.86 41.8845C114.002 42.018 114.073 42.1785 114.073 42.366C114.073 42.5535 114.002 42.714 113.86 42.8476C113.721 42.9811 113.554 43.0478 113.357 43.0478ZM115.694 53.1387V44.1387H116.665V45.1785H116.785C116.859 45.0649 116.961 44.92 117.092 44.7439C117.225 44.5649 117.415 44.4058 117.663 44.2666C117.913 44.1245 118.251 44.0535 118.677 44.0535C119.228 44.0535 119.714 44.1913 120.134 44.4669C120.555 44.7424 120.883 45.1331 121.119 45.6387C121.354 46.1444 121.472 46.741 121.472 47.4285C121.472 48.1217 121.354 48.7226 121.119 49.2311C120.883 49.7368 120.556 50.1288 120.138 50.4072C119.721 50.6828 119.239 50.8206 118.694 50.8206C118.273 50.8206 117.937 50.751 117.684 50.6118C117.431 50.4697 117.236 50.3092 117.1 50.1302C116.964 49.9484 116.859 49.7978 116.785 49.6785H116.699V53.1387H115.694ZM116.682 47.4115C116.682 47.9058 116.755 48.3419 116.9 48.7197C117.045 49.0947 117.256 49.3887 117.535 49.6018C117.813 49.812 118.154 49.9172 118.557 49.9172C118.978 49.9172 119.329 49.8064 119.61 49.5848C119.894 49.3603 120.107 49.0592 120.249 48.6814C120.394 48.3007 120.467 47.8774 120.467 47.4115C120.467 46.9512 120.395 46.5365 120.253 46.1672C120.114 45.795 119.903 45.501 119.619 45.2851C119.337 45.0663 118.984 44.9569 118.557 44.9569C118.148 44.9569 117.805 45.0606 117.526 45.268C117.248 45.4726 117.038 45.7595 116.895 46.1288C116.753 46.4953 116.682 46.9228 116.682 47.4115ZM125.853 44.1387V44.991H122.461V44.1387H125.853ZM123.449 42.5706H124.455V48.8092C124.455 49.0933 124.496 49.3064 124.579 49.4484C124.664 49.5876 124.772 49.6814 124.903 49.7297C125.036 49.7751 125.177 49.7978 125.324 49.7978C125.435 49.7978 125.526 49.7922 125.597 49.7808C125.668 49.7666 125.725 49.7552 125.768 49.7467L125.972 50.6501C125.904 50.6757 125.809 50.7012 125.687 50.7268C125.565 50.7552 125.41 50.7694 125.222 50.7694C124.938 50.7694 124.66 50.7084 124.387 50.5862C124.117 50.464 123.893 50.278 123.714 50.028C123.538 49.778 123.449 49.4626 123.449 49.0819V42.5706ZM127.366 50.6842V44.1387H128.371V50.6842H127.366ZM127.877 43.0478C127.681 43.0478 127.512 42.9811 127.37 42.8476C127.231 42.714 127.161 42.5535 127.161 42.366C127.161 42.1785 127.231 42.018 127.37 41.8845C127.512 41.751 127.681 41.6842 127.877 41.6842C128.073 41.6842 128.241 41.751 128.38 41.8845C128.522 42.018 128.593 42.1785 128.593 42.366C128.593 42.5535 128.522 42.714 128.38 42.8476C128.241 42.9811 128.073 43.0478 127.877 43.0478ZM132.872 50.8206C132.281 50.8206 131.763 50.6799 131.317 50.3987C130.874 50.1174 130.527 49.724 130.277 49.2183C130.03 48.7126 129.906 48.1217 129.906 47.4456C129.906 46.7637 130.03 46.1686 130.277 45.6601C130.527 45.1515 130.874 44.7566 131.317 44.4754C131.763 44.1941 132.281 44.0535 132.872 44.0535C133.463 44.0535 133.98 44.1941 134.424 44.4754C134.87 44.7566 135.216 45.1515 135.463 45.6601C135.713 46.1686 135.838 46.7637 135.838 47.4456C135.838 48.1217 135.713 48.7126 135.463 49.2183C135.216 49.724 134.87 50.1174 134.424 50.3987C133.98 50.6799 133.463 50.8206 132.872 50.8206ZM132.872 49.9172C133.321 49.9172 133.691 49.8021 133.98 49.572C134.27 49.3419 134.485 49.0393 134.624 48.6643C134.763 48.2893 134.833 47.8831 134.833 47.4456C134.833 47.0081 134.763 46.6004 134.624 46.2226C134.485 45.8447 134.27 45.5393 133.98 45.3064C133.691 45.0734 133.321 44.9569 132.872 44.9569C132.424 44.9569 132.054 45.0734 131.764 45.3064C131.475 45.5393 131.26 45.8447 131.121 46.2226C130.982 46.6004 130.912 47.0081 130.912 47.4456C130.912 47.8831 130.982 48.2893 131.121 48.6643C131.26 49.0393 131.475 49.3419 131.764 49.572C132.054 49.8021 132.424 49.9172 132.872 49.9172ZM138.379 46.7467V50.6842H137.373V44.1387H138.345V45.1615H138.43C138.584 44.8291 138.817 44.562 139.129 44.3603C139.442 44.1558 139.845 44.0535 140.339 44.0535C140.783 44.0535 141.17 44.1444 141.503 44.3262C141.835 44.5052 142.094 44.778 142.278 45.1444C142.463 45.5081 142.555 45.9683 142.555 46.5251V50.6842H141.55V46.5933C141.55 46.0791 141.416 45.6785 141.149 45.3916C140.882 45.1018 140.516 44.9569 140.05 44.9569C139.729 44.9569 139.442 45.0265 139.189 45.1657C138.939 45.3049 138.741 45.5081 138.596 45.7751C138.452 46.0422 138.379 46.366 138.379 46.7467ZM150.427 50.8206C149.836 50.8206 149.318 50.6799 148.872 50.3987C148.429 50.1174 148.082 49.724 147.832 49.2183C147.585 48.7126 147.461 48.1217 147.461 47.4456C147.461 46.7637 147.585 46.1686 147.832 45.6601C148.082 45.1515 148.429 44.7566 148.872 44.4754C149.318 44.1941 149.836 44.0535 150.427 44.0535C151.018 44.0535 151.535 44.1941 151.978 44.4754C152.424 44.7566 152.771 45.1515 153.018 45.6601C153.268 46.1686 153.393 46.7637 153.393 47.4456C153.393 48.1217 153.268 48.7126 153.018 49.2183C152.771 49.724 152.424 50.1174 151.978 50.3987C151.535 50.6799 151.018 50.8206 150.427 50.8206ZM150.427 49.9172C150.876 49.9172 151.245 49.8021 151.535 49.572C151.825 49.3419 152.039 49.0393 152.179 48.6643C152.318 48.2893 152.387 47.8831 152.387 47.4456C152.387 47.0081 152.318 46.6004 152.179 46.2226C152.039 45.8447 151.825 45.5393 151.535 45.3064C151.245 45.0734 150.876 44.9569 150.427 44.9569C149.978 44.9569 149.609 45.0734 149.319 45.3064C149.029 45.5393 148.815 45.8447 148.676 46.2226C148.536 46.6004 148.467 47.0081 148.467 47.4456C148.467 47.8831 148.536 48.2893 148.676 48.6643C148.815 49.0393 149.029 49.3419 149.319 49.572C149.609 49.8021 149.978 49.9172 150.427 49.9172ZM157.843 44.1387V44.991H154.315V44.1387H157.843ZM155.371 50.6842V43.2353C155.371 42.8603 155.459 42.5478 155.636 42.2978C155.812 42.0478 156.04 41.8603 156.322 41.7353C156.603 41.6103 156.9 41.5478 157.212 41.5478C157.459 41.5478 157.661 41.5677 157.817 41.6075C157.974 41.6473 158.09 41.6842 158.167 41.7183L157.877 42.5876C157.826 42.5706 157.755 42.5493 157.664 42.5237C157.576 42.4981 157.459 42.4853 157.315 42.4853C156.982 42.4853 156.742 42.5691 156.594 42.7368C156.449 42.9044 156.377 43.1501 156.377 43.474V50.6842H155.371ZM164.554 50.8376C164.139 50.8376 163.762 50.7595 163.424 50.6032C163.086 50.4441 162.818 50.2155 162.619 49.9172C162.42 49.616 162.321 49.2524 162.321 48.8262C162.321 48.4512 162.394 48.1473 162.542 47.9143C162.69 47.6785 162.887 47.4939 163.134 47.3603C163.382 47.2268 163.654 47.1274 163.953 47.062C164.254 46.9939 164.556 46.9399 164.86 46.9001C165.258 46.849 165.581 46.8106 165.828 46.7851C166.078 46.7566 166.259 46.7098 166.373 46.6444C166.49 46.5791 166.548 46.4655 166.548 46.3035V46.2694C166.548 45.849 166.433 45.5223 166.203 45.2893C165.975 45.0564 165.63 44.9399 165.167 44.9399C164.687 44.9399 164.311 45.045 164.038 45.2552C163.765 45.4655 163.573 45.6899 163.463 45.9285L162.508 45.5876C162.679 45.1899 162.906 44.8802 163.19 44.6586C163.477 44.4342 163.789 44.278 164.127 44.1899C164.468 44.099 164.804 44.0535 165.133 44.0535C165.343 44.0535 165.585 44.0791 165.857 44.1302C166.133 44.1785 166.399 44.2794 166.654 44.4328C166.913 44.5862 167.127 44.8177 167.298 45.1274C167.468 45.437 167.554 45.8518 167.554 46.3717V50.6842H166.548V49.7978H166.497C166.429 49.9399 166.315 50.0919 166.156 50.2538C165.997 50.4157 165.785 50.5535 165.521 50.6672C165.257 50.7808 164.934 50.8376 164.554 50.8376ZM164.707 49.9342C165.105 49.9342 165.44 49.8561 165.713 49.6998C165.988 49.5436 166.196 49.3419 166.335 49.0947C166.477 48.8476 166.548 48.5876 166.548 48.3149V47.3944C166.505 47.4456 166.411 47.4924 166.267 47.5351C166.125 47.5748 165.96 47.6103 165.772 47.6416C165.588 47.67 165.407 47.6956 165.231 47.7183C165.058 47.7382 164.917 47.7552 164.809 47.7694C164.548 47.8035 164.304 47.8589 164.076 47.9356C163.852 48.0095 163.67 48.1217 163.531 48.2723C163.394 48.42 163.326 48.6217 163.326 48.8774C163.326 49.2268 163.456 49.491 163.714 49.67C163.975 49.8461 164.306 49.9342 164.707 49.9342ZM175.406 53.2751C174.92 53.2751 174.503 53.2126 174.153 53.0876C173.804 52.9655 173.513 52.8035 173.28 52.6018C173.05 52.403 172.866 52.1899 172.73 51.9626L173.531 51.4001C173.622 51.5194 173.737 51.6558 173.876 51.8092C174.016 51.9655 174.206 52.1004 174.447 52.214C174.692 52.3305 175.011 52.3887 175.406 52.3887C175.935 52.3887 176.371 52.2609 176.714 52.0052C177.058 51.7495 177.23 51.349 177.23 50.8035V49.474H177.145C177.071 49.5933 176.966 49.741 176.829 49.9172C176.696 50.0905 176.503 50.2453 176.25 50.3816C176 50.5152 175.662 50.5819 175.236 50.5819C174.707 50.5819 174.233 50.4569 173.812 50.2069C173.395 49.9569 173.064 49.5933 172.819 49.116C172.578 48.6387 172.457 48.0592 172.457 47.3774C172.457 46.7069 172.575 46.1231 172.811 45.626C173.047 45.126 173.375 44.7396 173.795 44.4669C174.216 44.1913 174.702 44.0535 175.253 44.0535C175.679 44.0535 176.017 44.1245 176.267 44.2666C176.52 44.4058 176.713 44.5649 176.846 44.7439C176.983 44.92 177.088 45.0649 177.162 45.1785H177.264V44.1387H178.236V50.8717C178.236 51.4342 178.108 51.8916 177.852 52.2439C177.599 52.599 177.258 52.8589 176.829 53.0237C176.403 53.1913 175.929 53.2751 175.406 53.2751ZM175.372 49.6785C175.775 49.6785 176.116 49.5862 176.395 49.4015C176.673 49.2169 176.885 48.9512 177.03 48.6047C177.175 48.2581 177.247 47.8433 177.247 47.3603C177.247 46.8887 177.176 46.4726 177.034 46.1118C176.892 45.751 176.682 45.4683 176.403 45.2637C176.125 45.0592 175.781 44.9569 175.372 44.9569C174.946 44.9569 174.591 45.0649 174.307 45.2808C174.025 45.4967 173.814 45.7865 173.672 46.1501C173.533 46.5137 173.463 46.9172 173.463 47.3603C173.463 47.8149 173.534 48.2169 173.676 48.5663C173.821 48.9129 174.034 49.1856 174.315 49.3845C174.599 49.5805 174.952 49.6785 175.372 49.6785ZM182.736 50.8206C182.145 50.8206 181.626 50.6799 181.18 50.3987C180.737 50.1174 180.391 49.724 180.141 49.2183C179.893 48.7126 179.77 48.1217 179.77 47.4456C179.77 46.7637 179.893 46.1686 180.141 45.6601C180.391 45.1515 180.737 44.7566 181.18 44.4754C181.626 44.1941 182.145 44.0535 182.736 44.0535C183.327 44.0535 183.844 44.1941 184.287 44.4754C184.733 44.7566 185.079 45.1515 185.327 45.6601C185.577 46.1686 185.702 46.7637 185.702 47.4456C185.702 48.1217 185.577 48.7126 185.327 49.2183C185.079 49.724 184.733 50.1174 184.287 50.3987C183.844 50.6799 183.327 50.8206 182.736 50.8206ZM182.736 49.9172C183.185 49.9172 183.554 49.8021 183.844 49.572C184.133 49.3419 184.348 49.0393 184.487 48.6643C184.626 48.2893 184.696 47.8831 184.696 47.4456C184.696 47.0081 184.626 46.6004 184.487 46.2226C184.348 45.8447 184.133 45.5393 183.844 45.3064C183.554 45.0734 183.185 44.9569 182.736 44.9569C182.287 44.9569 181.918 45.0734 181.628 45.3064C181.338 45.5393 181.123 45.8447 180.984 46.2226C180.845 46.6004 180.775 47.0081 180.775 47.4456C180.775 47.8831 180.845 48.2893 180.984 48.6643C181.123 49.0393 181.338 49.3419 181.628 49.572C181.918 49.8021 182.287 49.9172 182.736 49.9172ZM189.163 50.8376C188.748 50.8376 188.372 50.7595 188.034 50.6032C187.696 50.4441 187.427 50.2155 187.228 49.9172C187.029 49.616 186.93 49.2524 186.93 48.8262C186.93 48.4512 187.004 48.1473 187.152 47.9143C187.299 47.6785 187.497 47.4939 187.744 47.3603C187.991 47.2268 188.264 47.1274 188.562 47.062C188.863 46.9939 189.166 46.9399 189.47 46.9001C189.867 46.849 190.19 46.8106 190.437 46.7851C190.687 46.7566 190.869 46.7098 190.982 46.6444C191.099 46.5791 191.157 46.4655 191.157 46.3035V46.2694C191.157 45.849 191.042 45.5223 190.812 45.2893C190.585 45.0564 190.24 44.9399 189.777 44.9399C189.296 44.9399 188.92 45.045 188.647 45.2552C188.375 45.4655 188.183 45.6899 188.072 45.9285L187.117 45.5876C187.288 45.1899 187.515 44.8802 187.799 44.6586C188.086 44.4342 188.399 44.278 188.737 44.1899C189.078 44.099 189.413 44.0535 189.742 44.0535C189.953 44.0535 190.194 44.0791 190.467 44.1302C190.742 44.1785 191.008 44.2794 191.264 44.4328C191.522 44.5862 191.737 44.8177 191.907 45.1274C192.078 45.437 192.163 45.8518 192.163 46.3717V50.6842H191.157V49.7978H191.106C191.038 49.9399 190.924 50.0919 190.765 50.2538C190.606 50.4157 190.394 50.5535 190.13 50.6672C189.866 50.7808 189.544 50.8376 189.163 50.8376ZM189.316 49.9342C189.714 49.9342 190.049 49.8561 190.322 49.6998C190.598 49.5436 190.805 49.3419 190.944 49.0947C191.086 48.8476 191.157 48.5876 191.157 48.3149V47.3944C191.115 47.4456 191.021 47.4924 190.876 47.5351C190.734 47.5748 190.569 47.6103 190.382 47.6416C190.197 47.67 190.017 47.6956 189.84 47.7183C189.667 47.7382 189.527 47.7552 189.419 47.7694C189.157 47.8035 188.913 47.8589 188.686 47.9356C188.461 48.0095 188.279 48.1217 188.14 48.2723C188.004 48.42 187.936 48.6217 187.936 48.8774C187.936 49.2268 188.065 49.491 188.323 49.67C188.585 49.8461 188.916 49.9342 189.316 49.9342ZM195.004 41.9569V50.6842H193.998V41.9569H195.004ZM202.88 50.8206C202.267 50.8206 201.738 50.6757 201.295 50.3859C200.852 50.0961 200.511 49.697 200.272 49.1885C200.034 48.6799 199.914 48.099 199.914 47.4456C199.914 46.7808 200.036 46.1941 200.281 45.6856C200.528 45.1743 200.872 44.7751 201.312 44.4882C201.755 44.1984 202.272 44.0535 202.863 44.0535C203.323 44.0535 203.738 44.1387 204.107 44.3092C204.477 44.4797 204.779 44.7183 205.015 45.0251C205.251 45.3319 205.397 45.6899 205.454 46.099H204.448C204.372 45.8007 204.201 45.5365 203.937 45.3064C203.676 45.0734 203.323 44.9569 202.88 44.9569C202.488 44.9569 202.144 45.0592 201.849 45.2637C201.556 45.4655 201.328 45.751 201.163 46.1203C201.001 46.4868 200.92 46.9172 200.92 47.4115C200.92 47.9172 201 48.3575 201.159 48.7325C201.321 49.1075 201.548 49.3987 201.84 49.6061C202.136 49.8135 202.482 49.9172 202.88 49.9172C203.142 49.9172 203.379 49.8717 203.592 49.7808C203.805 49.6899 203.985 49.5592 204.133 49.3887C204.281 49.2183 204.386 49.0137 204.448 48.7751H205.454C205.397 49.1615 205.257 49.5095 205.032 49.8191C204.811 50.126 204.517 50.3703 204.15 50.5521C203.786 50.7311 203.363 50.8206 202.88 50.8206ZM207.93 41.9569V50.6842H206.924V41.9569H207.93ZM211.698 50.8376C211.283 50.8376 210.907 50.7595 210.569 50.6032C210.231 50.4441 209.962 50.2155 209.763 49.9172C209.565 49.616 209.465 49.2524 209.465 48.8262C209.465 48.4512 209.539 48.1473 209.687 47.9143C209.834 47.6785 210.032 47.4939 210.279 47.3603C210.526 47.2268 210.799 47.1274 211.097 47.062C211.398 46.9939 211.701 46.9399 212.005 46.9001C212.403 46.849 212.725 46.8106 212.972 46.7851C213.222 46.7566 213.404 46.7098 213.518 46.6444C213.634 46.5791 213.692 46.4655 213.692 46.3035V46.2694C213.692 45.849 213.577 45.5223 213.347 45.2893C213.12 45.0564 212.775 44.9399 212.312 44.9399C211.832 44.9399 211.455 45.045 211.182 45.2552C210.91 45.4655 210.718 45.6899 210.607 45.9285L209.653 45.5876C209.823 45.1899 210.05 44.8802 210.334 44.6586C210.621 44.4342 210.934 44.278 211.272 44.1899C211.613 44.099 211.948 44.0535 212.278 44.0535C212.488 44.0535 212.729 44.0791 213.002 44.1302C213.278 44.1785 213.543 44.2794 213.799 44.4328C214.057 44.5862 214.272 44.8177 214.442 45.1274C214.613 45.437 214.698 45.8518 214.698 46.3717V50.6842H213.692V49.7978H213.641C213.573 49.9399 213.459 50.0919 213.3 50.2538C213.141 50.4157 212.93 50.5535 212.665 50.6672C212.401 50.7808 212.079 50.8376 211.698 50.8376ZM211.851 49.9342C212.249 49.9342 212.584 49.8561 212.857 49.6998C213.133 49.5436 213.34 49.3419 213.479 49.0947C213.621 48.8476 213.692 48.5876 213.692 48.3149V47.3944C213.65 47.4456 213.556 47.4924 213.411 47.5351C213.269 47.5748 213.104 47.6103 212.917 47.6416C212.732 47.67 212.552 47.6956 212.376 47.7183C212.202 47.7382 212.062 47.7552 211.954 47.7694C211.692 47.8035 211.448 47.8589 211.221 47.9356C210.996 48.0095 210.815 48.1217 210.675 48.2723C210.539 48.42 210.471 48.6217 210.471 48.8774C210.471 49.2268 210.6 49.491 210.859 49.67C211.12 49.8461 211.451 49.9342 211.851 49.9342ZM216.534 50.6842V44.1387H217.539V50.6842H216.534ZM217.045 43.0478C216.849 43.0478 216.68 42.9811 216.538 42.8476C216.399 42.714 216.329 42.5535 216.329 42.366C216.329 42.1785 216.399 42.018 216.538 41.8845C216.68 41.751 216.849 41.6842 217.045 41.6842C217.241 41.6842 217.409 41.751 217.548 41.8845C217.69 42.018 217.761 42.1785 217.761 42.366C217.761 42.5535 217.69 42.714 217.548 42.8476C217.409 42.9811 217.241 43.0478 217.045 43.0478ZM219.381 50.6842V44.1387H220.353V45.1615H220.438C220.574 44.812 220.795 44.5407 221.099 44.3476C221.403 44.1515 221.768 44.0535 222.194 44.0535C222.626 44.0535 222.985 44.1515 223.272 44.3476C223.562 44.5407 223.788 44.812 223.949 45.1615H224.018C224.185 44.8234 224.437 44.5549 224.772 44.3561C225.107 44.1544 225.509 44.0535 225.978 44.0535C226.563 44.0535 227.042 44.2368 227.414 44.6032C227.786 44.9669 227.972 45.5336 227.972 46.3035V50.6842H226.967V46.3035C226.967 45.8206 226.834 45.4754 226.57 45.268C226.306 45.0606 225.995 44.9569 225.637 44.9569C225.177 44.9569 224.82 45.0961 224.567 45.3745C224.315 45.6501 224.188 45.9995 224.188 46.4228V50.6842H223.165V46.2012C223.165 45.8291 223.045 45.5294 222.803 45.3021C222.562 45.072 222.251 44.9569 221.87 44.9569C221.609 44.9569 221.364 45.0265 221.137 45.1657C220.913 45.3049 220.731 45.4981 220.592 45.7453C220.455 45.9896 220.387 46.2723 220.387 46.5933V50.6842H219.381ZM82.5436 65.8206C81.9129 65.8206 81.3689 65.6814 80.9115 65.403C80.4569 65.1217 80.1061 64.7297 79.8589 64.2268C79.6146 63.7211 79.4924 63.1331 79.4924 62.4626C79.4924 61.7922 79.6146 61.2012 79.8589 60.6899C80.1061 60.1757 80.4498 59.7751 80.8902 59.4882C81.3333 59.1984 81.8504 59.0535 82.4413 59.0535C82.7822 59.0535 83.1189 59.1103 83.4512 59.224C83.7836 59.3376 84.0862 59.5223 84.3589 59.778C84.6316 60.0308 84.849 60.366 85.0109 60.7836C85.1728 61.2012 85.2538 61.7155 85.2538 62.3262V62.7524H80.2083V61.8831H84.2311C84.2311 61.5137 84.1572 61.1842 84.0095 60.8944C83.8646 60.6047 83.6572 60.376 83.3873 60.2084C83.1203 60.0407 82.8049 59.9569 82.4413 59.9569C82.0407 59.9569 81.6941 60.0564 81.4015 60.2552C81.1118 60.4512 80.8887 60.7069 80.7325 61.0223C80.5762 61.3376 80.4981 61.6757 80.4981 62.0365V62.616C80.4981 63.1103 80.5833 63.5294 80.7538 63.8731C80.9271 64.214 81.1672 64.474 81.474 64.653C81.7808 64.8291 82.1373 64.9172 82.5436 64.9172C82.8078 64.9172 83.0464 64.8802 83.2595 64.8064C83.4754 64.7297 83.6615 64.616 83.8177 64.4655C83.974 64.312 84.0947 64.1217 84.1799 63.8944L85.1515 64.1672C85.0493 64.4967 84.8774 64.7865 84.6359 65.0365C84.3944 65.2836 84.0961 65.4768 83.741 65.616C83.3859 65.7524 82.9868 65.8206 82.5436 65.8206ZM87.7893 56.9569V65.6842H86.7836V56.9569H87.7893ZM92.3756 65.8206C91.7449 65.8206 91.2009 65.6814 90.7435 65.403C90.289 65.1217 89.9381 64.7297 89.6909 64.2268C89.4466 63.7211 89.3245 63.1331 89.3245 62.4626C89.3245 61.7922 89.4466 61.2012 89.6909 60.6899C89.9381 60.1757 90.2819 59.7751 90.7222 59.4882C91.1654 59.1984 91.6824 59.0535 92.2733 59.0535C92.6142 59.0535 92.9509 59.1103 93.2833 59.224C93.6157 59.3376 93.9182 59.5223 94.1909 59.778C94.4637 60.0308 94.681 60.366 94.8429 60.7836C95.0049 61.2012 95.0858 61.7155 95.0858 62.3262V62.7524H90.0404V61.8831H94.0631C94.0631 61.5137 93.9892 61.1842 93.8415 60.8944C93.6966 60.6047 93.4892 60.376 93.2194 60.2084C92.9523 60.0407 92.637 59.9569 92.2733 59.9569C91.8728 59.9569 91.5262 60.0564 91.2336 60.2552C90.9438 60.4512 90.7208 60.7069 90.5645 61.0223C90.4083 61.3376 90.3301 61.6757 90.3301 62.0365V62.616C90.3301 63.1103 90.4154 63.5294 90.5858 63.8731C90.7591 64.214 90.9992 64.474 91.306 64.653C91.6128 64.8291 91.9694 64.9172 92.3756 64.9172C92.6398 64.9172 92.8784 64.8802 93.0915 64.8064C93.3074 64.7297 93.4935 64.616 93.6498 64.4655C93.806 64.312 93.9267 64.1217 94.012 63.8944L94.9836 64.1672C94.8813 64.4967 94.7094 64.7865 94.4679 65.0365C94.2265 65.2836 93.9282 65.4768 93.573 65.616C93.2179 65.7524 92.8188 65.8206 92.3756 65.8206ZM96.6157 65.6842V59.1387H97.5873V60.1615H97.6725C97.8088 59.812 98.029 59.5407 98.333 59.3476C98.637 59.1515 99.002 59.0535 99.4282 59.0535C99.86 59.0535 100.219 59.1515 100.506 59.3476C100.796 59.5407 101.022 59.812 101.184 60.1615H101.252C101.42 59.8234 101.671 59.5549 102.006 59.3561C102.342 59.1544 102.744 59.0535 103.212 59.0535C103.797 59.0535 104.276 59.2368 104.648 59.6032C105.02 59.9669 105.207 60.5336 105.207 61.3035V65.6842H104.201V61.3035C104.201 60.8206 104.069 60.4754 103.805 60.268C103.54 60.0606 103.229 59.9569 102.871 59.9569C102.411 59.9569 102.055 60.0961 101.802 60.3745C101.549 60.6501 101.422 60.9995 101.422 61.4228V65.6842H100.4V61.2012C100.4 60.8291 100.279 60.5294 100.038 60.3021C99.7961 60.072 99.485 59.9569 99.1043 59.9569C98.8429 59.9569 98.5986 60.0265 98.3713 60.1657C98.1469 60.3049 97.9651 60.4981 97.8259 60.7453C97.6895 60.9896 97.6213 61.2723 97.6213 61.5933V65.6842H96.6157ZM109.79 65.8206C109.159 65.8206 108.615 65.6814 108.158 65.403C107.703 65.1217 107.352 64.7297 107.105 64.2268C106.861 63.7211 106.739 63.1331 106.739 62.4626C106.739 61.7922 106.861 61.2012 107.105 60.6899C107.352 60.1757 107.696 59.7751 108.136 59.4882C108.579 59.1984 109.096 59.0535 109.687 59.0535C110.028 59.0535 110.365 59.1103 110.697 59.224C111.03 59.3376 111.332 59.5223 111.605 59.778C111.878 60.0308 112.095 60.366 112.257 60.7836C112.419 61.2012 112.5 61.7155 112.5 62.3262V62.7524H107.454V61.8831H111.477C111.477 61.5137 111.403 61.1842 111.256 60.8944C111.111 60.6047 110.903 60.376 110.633 60.2084C110.366 60.0407 110.051 59.9569 109.687 59.9569C109.287 59.9569 108.94 60.0564 108.648 60.2552C108.358 60.4512 108.135 60.7069 107.979 61.0223C107.822 61.3376 107.744 61.6757 107.744 62.0365V62.616C107.744 63.1103 107.829 63.5294 108 63.8731C108.173 64.214 108.413 64.474 108.72 64.653C109.027 64.8291 109.383 64.9172 109.79 64.9172C110.054 64.9172 110.293 64.8802 110.506 64.8064C110.721 64.7297 110.908 64.616 111.064 64.4655C111.22 64.312 111.341 64.1217 111.426 63.8944L112.398 64.1672C112.295 64.4967 112.123 64.7865 111.882 65.0365C111.641 65.2836 111.342 65.4768 110.987 65.616C110.632 65.7524 110.233 65.8206 109.79 65.8206ZM115.035 61.7467V65.6842H114.03V59.1387H115.001V60.1615H115.087C115.24 59.8291 115.473 59.562 115.785 59.3603C116.098 59.1558 116.501 59.0535 116.996 59.0535C117.439 59.0535 117.827 59.1444 118.159 59.3262C118.491 59.5052 118.75 59.778 118.935 60.1444C119.119 60.5081 119.212 60.9683 119.212 61.5251V65.6842H118.206V61.5933C118.206 61.0791 118.072 60.6785 117.805 60.3916C117.538 60.1018 117.172 59.9569 116.706 59.9569C116.385 59.9569 116.098 60.0265 115.845 60.1657C115.595 60.3049 115.398 60.5081 115.253 60.7751C115.108 61.0422 115.035 61.366 115.035 61.7467ZM123.896 59.1387V59.991H120.504V59.1387H123.896ZM121.492 57.5706H122.498V63.8092C122.498 64.0933 122.539 64.3064 122.622 64.4484C122.707 64.5876 122.815 64.6814 122.946 64.7297C123.079 64.7751 123.22 64.7978 123.367 64.7978C123.478 64.7978 123.569 64.7922 123.64 64.7808C123.711 64.7666 123.768 64.7552 123.811 64.7467L124.015 65.6501C123.947 65.6757 123.852 65.7012 123.73 65.7268C123.607 65.7552 123.453 65.7694 123.265 65.7694C122.981 65.7694 122.703 65.7084 122.43 65.5862C122.16 65.464 121.936 65.278 121.757 65.028C121.581 64.778 121.492 64.4626 121.492 64.0819V57.5706ZM126.142 65.7524C125.931 65.7524 125.751 65.6771 125.6 65.5265C125.45 65.376 125.375 65.1956 125.375 64.9853C125.375 64.7751 125.45 64.5947 125.6 64.4441C125.751 64.2936 125.931 64.2183 126.142 64.2183C126.352 64.2183 126.532 64.2936 126.683 64.4441C126.833 64.5947 126.909 64.7751 126.909 64.9853C126.909 65.1245 126.873 65.2524 126.802 65.3689C126.734 65.4853 126.642 65.5791 126.525 65.6501C126.411 65.7183 126.284 65.7524 126.142 65.7524Z" fill="white"/>
</svg>
