<svg width="20" height="20" viewBox="0 0 20 20" fill="none" xmlns="http://www.w3.org/2000/svg">
<g id="bag-suitcase-4--product-business-briefcase">
<path id="Rectangle 1708" d="M2.14293 4.28571H17.8572C17.8572 4.28571 19.2858 4.28571 19.2858 5.71428V17.8571C19.2858 17.8571 19.2858 19.2857 17.8572 19.2857H2.14293C2.14293 19.2857 0.714355 19.2857 0.714355 17.8571V5.71428C0.714355 5.71428 0.714355 4.28571 2.14293 4.28571Z" stroke="currentColor" stroke-width="2" stroke-linecap="round" stroke-linejoin="round"/>
<path id="Vector 2184" d="M0.714355 10.4146L9.19004 12.9203C9.71875 13.0766 10.2814 13.0766 10.8101 12.9203L19.2858 10.4146" stroke="currentColor" stroke-width="2" stroke-linecap="round" stroke-linejoin="round"/>
<path id="Vector 2185" d="M6.89551 4.28572V2.14287C6.89551 1.35389 7.53511 0.714294 8.32408 0.714294H11.6709C12.4598 0.714294 13.0994 1.35389 13.0994 2.14287V4.28572" stroke="currentColor" stroke-width="2" stroke-linecap="round" stroke-linejoin="round"/>
</g>
</svg>
