<svg width="20" height="20" viewBox="0 0 20 20" fill="none" xmlns="http://www.w3.org/2000/svg">
<g id="dashboard-square--app-application-dashboard-home-layout-square">
<path id="Vector" d="M6.42864 0.714294H2.14293C1.35395 0.714294 0.714355 1.35389 0.714355 2.14287V6.42858C0.714355 7.21755 1.35395 7.85715 2.14293 7.85715H6.42864C7.21761 7.85715 7.85721 7.21755 7.85721 6.42858V2.14287C7.85721 1.35389 7.21761 0.714294 6.42864 0.714294Z" stroke="currentColor" stroke-width="2" stroke-linecap="round" stroke-linejoin="round"/>
<path id="Vector_2" d="M17.8574 0.714294H13.5716C12.7827 0.714294 12.1431 1.35389 12.1431 2.14287V6.42858C12.1431 7.21755 12.7827 7.85715 13.5716 7.85715H17.8574C18.6464 7.85715 19.2859 7.21755 19.2859 6.42858V2.14287C19.2859 1.35389 18.6464 0.714294 17.8574 0.714294Z" stroke="currentColor" stroke-width="2" stroke-linecap="round" stroke-linejoin="round"/>
<path id="Vector_3" d="M6.42864 12.1429H2.14293C1.35395 12.1429 0.714355 12.7825 0.714355 13.5715V17.8572C0.714355 18.6462 1.35395 19.2857 2.14293 19.2857H6.42864C7.21761 19.2857 7.85721 18.6462 7.85721 17.8572V13.5715C7.85721 12.7825 7.21761 12.1429 6.42864 12.1429Z" stroke="currentColor" stroke-width="2" stroke-linecap="round" stroke-linejoin="round"/>
<path id="Vector_4" d="M17.8574 12.1429H13.5716C12.7827 12.1429 12.1431 12.7825 12.1431 13.5715V17.8572C12.1431 18.6462 12.7827 19.2857 13.5716 19.2857H17.8574C18.6464 19.2857 19.2859 18.6462 19.2859 17.8572V13.5715C19.2859 12.7825 18.6464 12.1429 17.8574 12.1429Z" stroke="currentColor" stroke-width="2" stroke-linecap="round" stroke-linejoin="round"/>
</g>
</svg>
