<svg width="20" height="20" viewBox="0 0 20 20" fill="none" xmlns="http://www.w3.org/2000/svg">
<g id="draft">
<path id="Vector" d="M16.4276 2.14287C16.4276 1.76398 16.2772 1.40062 16.0092 1.13271C15.7413 0.864804 15.3779 0.714294 14.9991 0.714294H4.99909L0.713379 5.00001V17.8572C0.713379 18.236 0.863889 18.5994 1.1318 18.8673C1.39971 19.1352 1.76307 19.2857 2.14195 19.2857H14.9991C15.3779 19.2857 15.7413 19.1352 16.0092 18.8673C16.2772 18.5994 16.4276 18.236 16.4276 17.8572V15.7143" stroke="currentColor" stroke-width="2" stroke-linecap="round" stroke-linejoin="round"/>
<path id="Vector_2" d="M5.71342 0.714294L5.71343 5.71429H0.713379" stroke="currentColor" stroke-width="2" stroke-linecap="round" stroke-linejoin="round"/>
<path id="Vector_3" d="M12.1402 15.7166L7.85645 16.4876L8.57042 12.1467L15.3233 5.42239C15.456 5.28854 15.614 5.18231 15.788 5.10981C15.962 5.03733 16.1485 5 16.3371 5C16.5255 5 16.7123 5.03733 16.8863 5.10981C17.0603 5.18231 17.2183 5.28854 17.351 5.42239L18.8645 6.93599C18.9984 7.06874 19.1045 7.22667 19.1771 7.40067C19.2495 7.57469 19.287 7.76131 19.287 7.94983C19.287 8.13833 19.2495 8.32497 19.1771 8.49897C19.1045 8.67299 18.9984 8.83091 18.8645 8.96366L12.1402 15.7166Z" stroke="currentColor" stroke-width="2" stroke-linecap="round" stroke-linejoin="round"/>
</g>
</svg>
