<svg width="20" height="20" viewBox="0 0 20 20" fill="none" xmlns="http://www.w3.org/2000/svg">
<g id="help-question-1--circle-faq-frame-help-info-mark-more-query-question">
<path id="Vector" d="M10.0001 19.2857C15.1285 19.2857 19.2858 15.1284 19.2858 10C19.2858 4.87165 15.1285 0.714294 10.0001 0.714294C4.87171 0.714294 0.714355 4.87165 0.714355 10C0.714355 15.1284 4.87171 19.2857 10.0001 19.2857Z" stroke="currentColor" stroke-width="2" stroke-linecap="round" stroke-linejoin="round"/>
<path id="Vector_2" d="M7.5 7.49963C7.5 7.00517 7.64676 6.52183 7.92171 6.11071C8.19666 5.69958 8.58747 5.37916 9.0447 5.18994C9.50193 5.00071 10.0051 4.95121 10.4904 5.04767C10.9758 5.14414 11.4217 5.38224 11.7717 5.73187C12.1216 6.0815 12.3599 6.52696 12.4565 7.0119C12.553 7.49686 12.5035 7.99951 12.3141 8.45633C12.1247 8.91314 11.804 9.30358 11.3925 9.57828C10.981 9.853 10.4972 9.99961 10.0023 9.99961V11.6663" stroke="currentColor" stroke-width="2" stroke-linecap="round" stroke-linejoin="round"/>
<g id="Group 2567">
<path id="Vector_3" d="M10.0002 14.9407C9.80297 14.9407 9.64307 14.7809 9.64307 14.5836C9.64307 14.3863 9.80297 14.2264 10.0002 14.2264" stroke="currentColor" stroke-width="2" stroke-linecap="round" stroke-linejoin="round"/>
<path id="Vector_4" d="M10 14.9407C10.1972 14.9407 10.3571 14.7809 10.3571 14.5836C10.3571 14.3863 10.1972 14.2264 10 14.2264" stroke="currentColor" stroke-width="2" stroke-linecap="round" stroke-linejoin="round"/>
</g>
</g>
</svg>
