<svg width="20" height="20" viewBox="0 0 20 20" fill="none" xmlns="http://www.w3.org/2000/svg">
<g id="hierarchy-2--node-organization-links-structure-link-nodes-network-hierarchy">
<path id="Vector" d="M2.85742 14.2857V11.4286C2.85742 11.0497 3.00794 10.6863 3.27584 10.4184C3.54375 10.1505 3.90711 10 4.28599 10H15.7146C16.0934 10 16.4568 10.1505 16.7247 10.4184C16.9926 10.6863 17.1431 11.0497 17.1431 11.4286V14.2857" stroke="currentColor" stroke-width="2" stroke-linecap="round" stroke-linejoin="round"/>
<path id="Vector_2" d="M10 5.71429V14.2857" stroke="currentColor" stroke-width="2" stroke-linecap="round" stroke-linejoin="round"/>
<path id="Vector 2521" d="M7.85742 2.85716V4.28573C7.85742 5.0747 8.49702 5.7143 9.28599 5.7143H10.7146C11.5035 5.7143 12.1431 5.0747 12.1431 4.28573V2.85716C12.1431 2.06819 11.5035 1.42859 10.7146 1.42859H9.28599C8.49702 1.42859 7.85742 2.06819 7.85742 2.85716Z" stroke="currentColor" stroke-width="2" stroke-linecap="round" stroke-linejoin="round"/>
<path id="Vector 2522" d="M7.85742 15.7143V17.1428C7.85742 17.9318 8.49702 18.5714 9.28599 18.5714H10.7146C11.5035 18.5714 12.1431 17.9318 12.1431 17.1428V15.7143C12.1431 14.9253 11.5035 14.2857 10.7146 14.2857H9.28599C8.49702 14.2857 7.85742 14.9253 7.85742 15.7143Z" stroke="currentColor" stroke-width="2" stroke-linecap="round" stroke-linejoin="round"/>
<path id="Vector 2523" d="M0.714355 15.7143V17.1428C0.714355 17.9318 1.35395 18.5714 2.14293 18.5714H3.5715C4.36047 18.5714 5.00007 17.9318 5.00007 17.1428V15.7143C5.00007 14.9253 4.36047 14.2857 3.5715 14.2857H2.14293C1.35395 14.2857 0.714355 14.9253 0.714355 15.7143Z" stroke="currentColor" stroke-width="2" stroke-linecap="round" stroke-linejoin="round"/>
<path id="Vector 2524" d="M15 15.7143V17.1428C15 17.9318 15.6396 18.5714 16.4286 18.5714H17.8571C18.6461 18.5714 19.2857 17.9318 19.2857 17.1428V15.7143C19.2857 14.9253 18.6461 14.2857 17.8571 14.2857H16.4286C15.6396 14.2857 15 14.9253 15 15.7143Z" stroke="currentColor" stroke-width="2" stroke-linecap="round" stroke-linejoin="round"/>
</g>
</svg>
