<svg width="20" height="20" viewBox="0 0 20 20" fill="none" xmlns="http://www.w3.org/2000/svg">
<g id="home-3--home-house-roof-shelter">
<path id="Vector" d="M19.2858 9.91429C19.2872 9.71601 19.2472 9.51961 19.1685 9.33761C19.0898 9.15561 18.9741 8.99198 18.8286 8.85715L10.0001 0.714294L1.17153 8.85715C1.02614 8.99198 0.910407 9.15561 0.831702 9.33761C0.752998 9.51961 0.713047 9.71601 0.714388 9.91429V17.8572C0.714388 18.236 0.864898 18.5994 1.13281 18.8673C1.40072 19.1352 1.76408 19.2857 2.14296 19.2857H17.8572C18.2361 19.2857 18.5995 19.1352 18.8674 18.8673C19.1354 18.5994 19.2858 18.236 19.2858 17.8572V9.91429Z" stroke="currentColor" stroke-width="2" stroke-linecap="round" stroke-linejoin="round"/>
<path id="Vector_2" d="M10 19.2857V13.5714" stroke="currentColor" stroke-width="2" stroke-linecap="round" stroke-linejoin="round"/>
</g>
</svg>
