<svg width="22" height="22" viewBox="0 0 22 22" fill="none" xmlns="http://www.w3.org/2000/svg">
<g id="share-link--share-transmit">
<path id="Vector" d="M4.92864 14.2143C6.70384 14.2143 8.14293 12.7752 8.14293 11C8.14293 9.22479 6.70384 7.78571 4.92864 7.78571C3.15344 7.78571 1.71436 9.22479 1.71436 11C1.71436 12.7752 3.15344 14.2143 4.92864 14.2143Z" stroke="currentColor" stroke-width="2" stroke-linecap="round" stroke-linejoin="round"/>
<path id="Vector_2" d="M17.0717 20.2858C18.8469 20.2858 20.286 18.8466 20.286 17.0715C20.286 15.2963 18.8469 13.8572 17.0717 13.8572C15.2966 13.8572 13.8574 15.2963 13.8574 17.0715C13.8574 18.8466 15.2966 20.2858 17.0717 20.2858Z" stroke="currentColor" stroke-width="2" stroke-linecap="round" stroke-linejoin="round"/>
<path id="Vector_3" d="M17.0717 8.14287C18.8469 8.14287 20.286 6.70378 20.286 4.92858C20.286 3.15338 18.8469 1.71429 17.0717 1.71429C15.2966 1.71429 13.8574 3.15338 13.8574 4.92858C13.8574 6.70378 15.2966 8.14287 17.0717 8.14287Z" stroke="currentColor" stroke-width="2" stroke-linecap="round" stroke-linejoin="round"/>
<path id="Vector_4" d="M7.80029 9.57146L14.2003 6.35718" stroke="currentColor" stroke-width="2" stroke-linecap="round" stroke-linejoin="round"/>
<path id="Vector_5" d="M7.80029 12.4286L14.2003 15.6429" stroke="currentColor" stroke-width="2" stroke-linecap="round" stroke-linejoin="round"/>
</g>
</svg>
