<svg width="8" height="22" viewBox="0 0 8 22" fill="none" xmlns="http://www.w3.org/2000/svg">
<g id="vertical-menu--navigation-vertical-three-circle-button-menu-dots">
<path id="Vector" d="M3.99979 6.00001C5.18326 6.00001 6.14265 5.04062 6.14265 3.85715C6.14265 2.67368 5.18326 1.71429 3.99979 1.71429C2.81632 1.71429 1.85693 2.67368 1.85693 3.85715C1.85693 5.04062 2.81632 6.00001 3.99979 6.00001Z" stroke="currentColor" stroke-width="2" stroke-linecap="round" stroke-linejoin="round"/>
<path id="Vector_2" d="M3.99979 13.1429C5.18326 13.1429 6.14265 12.1835 6.14265 11C6.14265 9.81656 5.18326 8.85718 3.99979 8.85718C2.81632 8.85718 1.85693 9.81656 1.85693 11C1.85693 12.1835 2.81632 13.1429 3.99979 13.1429Z" stroke="currentColor" stroke-width="2" stroke-linecap="round" stroke-linejoin="round"/>
<path id="Vector_3" d="M3.99979 20.2857C5.18326 20.2857 6.14265 19.3263 6.14265 18.1429C6.14265 16.9594 5.18326 16 3.99979 16C2.81632 16 1.85693 16.9594 1.85693 18.1429C1.85693 19.3263 2.81632 20.2857 3.99979 20.2857Z" stroke="currentColor" stroke-width="2" stroke-linecap="round" stroke-linejoin="round"/>
</g>
</svg>
