<svg width="18" height="20" viewBox="0 0 18 20" fill="none" xmlns="http://www.w3.org/2000/svg">
<g id="wheelchair-2--person-access-wheelchair-accomodation-human-disability-disabled-user">
<path id="Ellipse 213" d="M10.9131 3.62284C10.9131 4.29952 11.1819 4.94849 11.6604 5.42697C12.1389 5.90546 12.7878 6.17427 13.4645 6.17427C14.1412 6.17427 14.7902 5.90546 15.2686 5.42697C15.7471 4.94849 16.0159 4.29952 16.0159 3.62284C16.0159 2.94616 15.7471 2.29719 15.2686 1.81871C14.7902 1.34022 14.1412 1.07141 13.4645 1.07141C12.7878 1.07141 12.1389 1.34022 11.6604 1.81871C11.1819 2.29719 10.9131 2.94616 10.9131 3.62284Z" stroke="currentColor" stroke-width="2" stroke-linecap="round" stroke-linejoin="round"/>
<path id="Vector 368" d="M12.3816 5.91376L9.01898 11.4663C8.73068 11.9423 9.07342 12.5506 9.62995 12.5506H14.7393L16.6523 17.6521" stroke="currentColor" stroke-width="2" stroke-linecap="round" stroke-linejoin="round"/>
<path id="Ellipse 214" d="M2.62306 10.4523C1.8293 11.3517 1.34766 12.533 1.34766 13.8268C1.34766 16.6443 3.63171 18.9284 6.44923 18.9284C8.33754 18.9284 9.98623 17.9024 10.8683 16.3775" stroke="currentColor" stroke-width="2" stroke-linecap="round" stroke-linejoin="round"/>
<path id="Vector 876" d="M4.53613 7.44824L6.23268 5.75169C6.72582 5.25854 7.50296 5.19356 8.07116 5.59793L11.1821 7.81193" stroke="currentColor" stroke-width="2" stroke-linecap="round" stroke-linejoin="round"/>
</g>
</svg>
