<svg width="20" height="20" viewBox="0 0 20 20" fill="none" xmlns="http://www.w3.org/2000/svg">
<g id="recycle-bin-2--remove-delete-empty-bin-trash-garbage">
<path id="Vector" d="M1.42871 5H18.5716" stroke="currentColor" stroke-width="2" stroke-linecap="round" stroke-linejoin="round"/>
<path id="Vector_2" d="M3.57178 5H16.4289V17.8571C16.4289 18.236 16.2783 18.5994 16.0105 18.8673C15.7426 19.1351 15.3792 19.2857 15.0003 19.2857H5.00035C4.62146 19.2857 4.25811 19.1351 3.99019 18.8673C3.72229 18.5994 3.57178 18.236 3.57178 17.8571V5Z" stroke="currentColor" stroke-width="2" stroke-linecap="round" stroke-linejoin="round"/>
<path id="Vector_3" d="M6.42871 5.00001V4.28572C6.42871 3.33852 6.80498 2.43011 7.47475 1.76034C8.14453 1.09057 9.05294 0.714294 10.0001 0.714294C10.9473 0.714294 11.8558 1.09057 12.5255 1.76034C13.1953 2.43011 13.5716 3.33852 13.5716 4.28572V5.00001" stroke="currentColor" stroke-width="2" stroke-linecap="round" stroke-linejoin="round"/>
<path id="Vector_4" d="M7.85742 9.28778V15.0043" stroke="currentColor" stroke-width="2" stroke-linecap="round" stroke-linejoin="round"/>
<path id="Vector_5" d="M12.1431 9.28778V15.0043" stroke="currentColor" stroke-width="2" stroke-linecap="round" stroke-linejoin="round"/>
</g>
</svg>
