<svg width="20" height="20" viewBox="0 0 20 20" fill="none" xmlns="http://www.w3.org/2000/svg">
<g id="hierarchy-5--node-organization-links-structure-link-nodes-network-hierarchy">
<path id="Vector" d="M9.99986 6.42859V6.78573C9.99986 7.63822 9.66122 8.45578 9.05842 9.05858C8.45562 9.66138 7.63806 10 6.78557 10C5.93309 10 5.11553 10.3387 4.51273 10.9415C3.90993 11.5443 3.57129 12.3618 3.57129 13.2143V13.5714" stroke="currentColor" stroke-width="2" stroke-linecap="round" stroke-linejoin="round"/>
<path id="Vector_2" d="M10 6.42859V6.78573C10 7.63822 10.3386 8.45578 10.9414 9.05858C11.5442 9.66138 12.3618 10 13.2143 10C14.0668 10 14.8843 10.3387 15.4871 10.9415C16.0899 11.5443 16.4286 12.3618 16.4286 13.2143V13.5714" stroke="currentColor" stroke-width="2" stroke-linecap="round" stroke-linejoin="round"/>
<path id="Vector 2519" d="M11.4288 0.714294H8.57164C7.78267 0.714294 7.14307 1.35389 7.14307 2.14287V5.00001C7.14307 5.78898 7.78267 6.42858 8.57164 6.42858H11.4288C12.2178 6.42858 12.8574 5.78898 12.8574 5.00001V2.14287C12.8574 1.35389 12.2178 0.714294 11.4288 0.714294Z" stroke="currentColor" stroke-width="2" stroke-linecap="round" stroke-linejoin="round"/>
<path id="Vector 2520" d="M5.00007 13.5714H2.14293C1.35395 13.5714 0.714355 14.211 0.714355 15V17.8571C0.714355 18.6461 1.35395 19.2857 2.14293 19.2857H5.00007C5.78904 19.2857 6.42864 18.6461 6.42864 17.8571V15C6.42864 14.211 5.78904 13.5714 5.00007 13.5714Z" stroke="currentColor" stroke-width="2" stroke-linecap="round" stroke-linejoin="round"/>
<path id="Vector 2521" d="M17.857 13.5714H14.9999C14.2109 13.5714 13.5713 14.211 13.5713 15V17.8571C13.5713 18.6461 14.2109 19.2857 14.9999 19.2857H17.857C18.646 19.2857 19.2856 18.6461 19.2856 17.8571V15C19.2856 14.211 18.646 13.5714 17.857 13.5714Z" stroke="currentColor" stroke-width="2" stroke-linecap="round" stroke-linejoin="round"/>
</g>
</svg>
