<svg width="274" height="84" viewBox="0 0 274 84" fill="none" xmlns="http://www.w3.org/2000/svg">
<rect width="274" height="84" rx="10" fill="#DB2877"/>
<ellipse cx="37.1818" cy="42" rx="26.1818" ry="27" fill="#B22767"/>
<path d="M37 43.25V29.5L47 34.5L37 39.5" stroke="white" stroke-width="2" stroke-linecap="round" stroke-linejoin="round"/>
<path d="M47.7012 39.7775C48.3664 41.8277 48.4286 44.0258 47.8805 46.1103C47.3324 48.1948 46.197 50.078 44.6094 51.5358C43.0218 52.9937 41.0489 53.9647 38.9253 54.3335C36.8017 54.7023 34.6168 54.4533 32.6307 53.6161C30.6445 52.7789 28.9407 51.3888 27.7218 49.6111C26.503 47.8334 25.8205 45.7431 25.7555 43.5887C25.6905 41.4342 26.2458 39.3065 27.3552 37.4586C28.4647 35.6107 30.0816 34.1204 32.0137 33.165" stroke="white" stroke-width="2" stroke-linecap="round" stroke-linejoin="round"/>
<path d="M32.0025 39.4962C31.3761 40.33 30.9683 41.3073 30.8163 42.339C30.6643 43.3707 30.7728 44.424 31.132 45.4031C31.4912 46.3821 32.0897 47.2557 32.8729 47.9442C33.6561 48.6328 34.5992 49.1144 35.6162 49.3452C36.6331 49.576 37.6917 49.5487 38.6954 49.2657C39.6991 48.9828 40.6161 48.4531 41.3628 47.7251C42.1094 46.9971 42.662 46.0938 42.9703 45.0975C43.2785 44.1013 43.3326 43.0437 43.1275 42.0212" stroke="white" stroke-width="2" stroke-linecap="round" stroke-linejoin="round"/>
<path d="M83.6667 24.1562C83.5672 23.8106 83.4275 23.5052 83.2476 23.2401C83.0677 22.9702 82.8475 22.7429 82.5871 22.5582C82.3314 22.3688 82.0379 22.2244 81.7064 22.125C81.3797 22.0256 81.0175 21.9759 80.6198 21.9759C79.8764 21.9759 79.223 22.1605 78.6596 22.5298C78.1008 22.8991 77.6652 23.4366 77.3527 24.142C77.0402 24.8428 76.884 25.6998 76.884 26.7131C76.884 27.7263 77.0379 28.5881 77.3456 29.2983C77.6534 30.0085 78.089 30.5507 78.6525 30.9247C79.2159 31.294 79.8811 31.4787 80.6482 31.4787C81.3442 31.4787 81.9384 31.3556 82.4309 31.1094C82.928 30.8584 83.3068 30.5057 83.5672 30.0511C83.8324 29.5966 83.965 29.0592 83.965 28.4389L84.59 28.5312H80.84V26.2159H86.9266V28.0483C86.9266 29.3267 86.6567 30.4252 86.1169 31.3438C85.5772 32.2576 84.8338 32.9631 83.8868 33.4602C82.9399 33.9527 81.8556 34.1989 80.634 34.1989C79.2704 34.1989 78.0724 33.8982 77.0402 33.2969C76.008 32.6908 75.2031 31.8314 74.6255 30.7188C74.0525 29.6013 73.7661 28.2756 73.7661 26.7415C73.7661 25.5625 73.9365 24.5114 74.2775 23.5881C74.6231 22.66 75.1061 21.8741 75.7263 21.2301C76.3466 20.5862 77.0686 20.0961 77.8925 19.7599C78.7164 19.4238 79.6089 19.2557 80.5701 19.2557C81.3939 19.2557 82.161 19.3764 82.8712 19.6179C83.5814 19.8546 84.2112 20.1908 84.7604 20.6264C85.3144 21.062 85.7666 21.5805 86.1169 22.1818C86.4673 22.7784 86.6922 23.4366 86.7917 24.1562H83.6667ZM95.4795 19.4545V34H92.4042V22.3736H92.319L88.988 24.4616V21.7344L92.5889 19.4545H95.4795Z" fill="white"/>
<path d="M73.3371 42.8944V41.9569H79.8826V42.8944H77.1383V50.6842H76.0814V42.8944H73.3371ZM82.3829 46.7467V50.6842H81.3772V41.9569H82.3829V45.1615H82.4682C82.6216 44.8234 82.8517 44.5549 83.1585 44.3561C83.4682 44.1544 83.8801 44.0535 84.3943 44.0535C84.8403 44.0535 85.2309 44.143 85.5662 44.322C85.9014 44.4981 86.1613 44.7694 86.346 45.1359C86.5335 45.4995 86.6272 45.9626 86.6272 46.5251V50.6842H85.6216V46.5933C85.6216 46.0734 85.4866 45.6714 85.2167 45.3873C84.9497 45.1004 84.5789 44.9569 84.1045 44.9569C83.775 44.9569 83.4795 45.0265 83.2182 45.1657C82.9596 45.3049 82.7551 45.5081 82.6045 45.7751C82.4568 46.0422 82.3829 46.366 82.3829 46.7467ZM91.2114 50.8206C90.5807 50.8206 90.0367 50.6814 89.5793 50.403C89.1248 50.1217 88.7739 49.7297 88.5267 49.2268C88.2824 48.7211 88.1603 48.1331 88.1603 47.4626C88.1603 46.7922 88.2824 46.2012 88.5267 45.6899C88.7739 45.1757 89.1177 44.7751 89.558 44.4882C90.0012 44.1984 90.5182 44.0535 91.1091 44.0535C91.45 44.0535 91.7867 44.1103 92.1191 44.224C92.4515 44.3376 92.754 44.5223 93.0267 44.778C93.2995 45.0308 93.5168 45.366 93.6787 45.7836C93.8407 46.2012 93.9216 46.7155 93.9216 47.3262V47.7524H88.8762V46.8831H92.8989C92.8989 46.5137 92.825 46.1842 92.6773 45.8944C92.5324 45.6047 92.325 45.376 92.0552 45.2084C91.7881 45.0407 91.4728 44.9569 91.1091 44.9569C90.7086 44.9569 90.362 45.0564 90.0694 45.2552C89.7796 45.4512 89.5566 45.7069 89.4003 46.0223C89.2441 46.3376 89.1659 46.6757 89.1659 47.0365V47.616C89.1659 48.1103 89.2512 48.5294 89.4216 48.8731C89.5949 49.214 89.835 49.474 90.1418 49.653C90.4486 49.8291 90.8052 49.9172 91.2114 49.9172C91.4756 49.9172 91.7142 49.8802 91.9273 49.8064C92.1432 49.7297 92.3293 49.616 92.4856 49.4655C92.6418 49.312 92.7625 49.1217 92.8478 48.8944L93.8194 49.1672C93.7171 49.4967 93.5452 49.7865 93.3037 50.0365C93.0623 50.2836 92.764 50.4768 92.4088 50.616C92.0537 50.7524 91.6546 50.8206 91.2114 50.8206ZM99.3208 50.6842H98.2128L101.417 41.9569H102.508L105.713 50.6842H104.605L101.997 43.3376H101.929L99.3208 50.6842ZM99.7299 47.2751H104.196V48.2126H99.7299V47.2751ZM108.129 41.9569V50.6842H107.072V41.9569H108.129ZM118.123 45.6047L117.22 45.8603C117.163 45.7098 117.079 45.5635 116.968 45.4214C116.86 45.2765 116.712 45.1572 116.525 45.0635C116.337 44.9697 116.097 44.9228 115.805 44.9228C115.404 44.9228 115.07 45.0152 114.803 45.1998C114.539 45.3816 114.407 45.6132 114.407 45.8944C114.407 46.1444 114.498 46.3419 114.68 46.4868C114.862 46.6316 115.146 46.7524 115.532 46.849L116.504 47.0876C117.089 47.2297 117.525 47.447 117.812 47.7396C118.099 48.0294 118.242 48.403 118.242 48.8603C118.242 49.2353 118.134 49.5706 117.918 49.866C117.705 50.1615 117.407 50.3944 117.024 50.5649C116.64 50.7353 116.194 50.8206 115.685 50.8206C115.018 50.8206 114.465 50.6757 114.028 50.3859C113.59 50.0961 113.313 49.6728 113.197 49.116L114.151 48.8774C114.242 49.2297 114.414 49.4939 114.667 49.67C114.923 49.8461 115.257 49.9342 115.668 49.9342C116.137 49.9342 116.509 49.8348 116.785 49.6359C117.063 49.4342 117.203 49.1927 117.203 48.9115C117.203 48.6842 117.123 48.4939 116.964 48.3405C116.805 48.1842 116.56 48.0677 116.231 47.991L115.14 47.7353C114.541 47.5933 114.1 47.3731 113.819 47.0748C113.541 46.7737 113.401 46.3973 113.401 45.9456C113.401 45.5762 113.505 45.2495 113.712 44.9655C113.923 44.6814 114.208 44.4584 114.569 44.2964C114.933 44.1345 115.345 44.0535 115.805 44.0535C116.453 44.0535 116.961 44.1956 117.33 44.4797C117.703 44.7637 117.967 45.1387 118.123 45.6047ZM120.404 53.1387C120.233 53.1387 120.081 53.1245 119.948 53.0961C119.814 53.0706 119.722 53.045 119.671 53.0194L119.927 52.1331C120.171 52.1956 120.387 52.2183 120.574 52.2012C120.762 52.1842 120.928 52.1004 121.073 51.9498C121.221 51.8021 121.356 51.562 121.478 51.2297L121.665 50.7183L119.245 44.1387H120.336L122.143 49.3547H122.211L124.018 44.1387H125.108L122.33 51.6387C122.205 51.9768 122.05 52.2566 121.866 52.4782C121.681 52.7027 121.466 52.8689 121.222 52.9768C120.981 53.0848 120.708 53.1387 120.404 53.1387ZM131.072 45.6047L130.169 45.8603C130.112 45.7098 130.028 45.5635 129.917 45.4214C129.809 45.2765 129.662 45.1572 129.474 45.0635C129.287 44.9697 129.047 44.9228 128.754 44.9228C128.353 44.9228 128.02 45.0152 127.753 45.1998C127.488 45.3816 127.356 45.6132 127.356 45.8944C127.356 46.1444 127.447 46.3419 127.629 46.4868C127.811 46.6316 128.095 46.7524 128.481 46.849L129.453 47.0876C130.038 47.2297 130.474 47.447 130.761 47.7396C131.048 48.0294 131.192 48.403 131.192 48.8603C131.192 49.2353 131.084 49.5706 130.868 49.866C130.655 50.1615 130.356 50.3944 129.973 50.5649C129.589 50.7353 129.143 50.8206 128.635 50.8206C127.967 50.8206 127.415 50.6757 126.977 50.3859C126.54 50.0961 126.263 49.6728 126.146 49.116L127.101 48.8774C127.192 49.2297 127.363 49.4939 127.616 49.67C127.872 49.8461 128.206 49.9342 128.618 49.9342C129.086 49.9342 129.459 49.8348 129.734 49.6359C130.013 49.4342 130.152 49.1927 130.152 48.9115C130.152 48.6842 130.072 48.4939 129.913 48.3405C129.754 48.1842 129.51 48.0677 129.18 47.991L128.089 47.7353C127.49 47.5933 127.049 47.3731 126.768 47.0748C126.49 46.7737 126.351 46.3973 126.351 45.9456C126.351 45.5762 126.454 45.2495 126.662 44.9655C126.872 44.6814 127.157 44.4584 127.518 44.2964C127.882 44.1345 128.294 44.0535 128.754 44.0535C129.402 44.0535 129.91 44.1956 130.28 44.4797C130.652 44.7637 130.916 45.1387 131.072 45.6047ZM135.552 44.1387V44.991H132.16V44.1387H135.552ZM133.149 42.5706H134.154V48.8092C134.154 49.0933 134.195 49.3064 134.278 49.4484C134.363 49.5876 134.471 49.6814 134.602 49.7297C134.735 49.7751 134.876 49.7978 135.024 49.7978C135.134 49.7978 135.225 49.7922 135.296 49.7808C135.367 49.7666 135.424 49.7552 135.467 49.7467L135.671 50.6501C135.603 50.6757 135.508 50.7012 135.386 50.7268C135.264 50.7552 135.109 50.7694 134.921 50.7694C134.637 50.7694 134.359 50.7084 134.086 50.5862C133.816 50.464 133.592 50.278 133.413 50.028C133.237 49.778 133.149 49.4626 133.149 49.0819V42.5706ZM139.739 50.8206C139.108 50.8206 138.564 50.6814 138.107 50.403C137.652 50.1217 137.301 49.7297 137.054 49.2268C136.81 48.7211 136.688 48.1331 136.688 47.4626C136.688 46.7922 136.81 46.2012 137.054 45.6899C137.301 45.1757 137.645 44.7751 138.085 44.4882C138.529 44.1984 139.046 44.0535 139.636 44.0535C139.977 44.0535 140.314 44.1103 140.646 44.224C140.979 44.3376 141.281 44.5223 141.554 44.778C141.827 45.0308 142.044 45.366 142.206 45.7836C142.368 46.2012 142.449 46.7155 142.449 47.3262V47.7524H137.404V46.8831H141.426C141.426 46.5137 141.352 46.1842 141.205 45.8944C141.06 45.6047 140.852 45.376 140.582 45.2084C140.315 45.0407 140 44.9569 139.636 44.9569C139.236 44.9569 138.889 45.0564 138.597 45.2552C138.307 45.4512 138.084 45.7069 137.928 46.0223C137.771 46.3376 137.693 46.6757 137.693 47.0365V47.616C137.693 48.1103 137.779 48.5294 137.949 48.8731C138.122 49.214 138.362 49.474 138.669 49.653C138.976 49.8291 139.332 49.9172 139.739 49.9172C140.003 49.9172 140.242 49.8802 140.455 49.8064C140.671 49.7297 140.857 49.616 141.013 49.4655C141.169 49.312 141.29 49.1217 141.375 48.8944L142.347 49.1672C142.244 49.4967 142.073 49.7865 141.831 50.0365C141.59 50.2836 141.291 50.4768 140.936 50.616C140.581 50.7524 140.182 50.8206 139.739 50.8206ZM143.979 50.6842V44.1387H144.95V45.1615H145.036C145.172 44.812 145.392 44.5407 145.696 44.3476C146 44.1515 146.365 44.0535 146.791 44.0535C147.223 44.0535 147.582 44.1515 147.869 44.3476C148.159 44.5407 148.385 44.812 148.547 45.1615H148.615C148.783 44.8234 149.034 44.5549 149.369 44.3561C149.705 44.1544 150.107 44.0535 150.575 44.0535C151.161 44.0535 151.639 44.2368 152.011 44.6032C152.384 44.9669 152.57 45.5336 152.57 46.3035V50.6842H151.564V46.3035C151.564 45.8206 151.432 45.4754 151.168 45.268C150.904 45.0606 150.592 44.9569 150.234 44.9569C149.774 44.9569 149.418 45.0961 149.165 45.3745C148.912 45.6501 148.786 45.9995 148.786 46.4228V50.6842H147.763V46.2012C147.763 45.8291 147.642 45.5294 147.401 45.3021C147.159 45.072 146.848 44.9569 146.467 44.9569C146.206 44.9569 145.962 45.0265 145.734 45.1657C145.51 45.3049 145.328 45.4981 145.189 45.7453C145.053 45.9896 144.984 46.2723 144.984 46.5933V50.6842H143.979ZM157.783 50.6842V44.1387H158.789V50.6842H157.783ZM158.295 43.0478C158.099 43.0478 157.93 42.9811 157.788 42.8476C157.649 42.714 157.579 42.5535 157.579 42.366C157.579 42.1785 157.649 42.018 157.788 41.8845C157.93 41.751 158.099 41.6842 158.295 41.6842C158.491 41.6842 158.658 41.751 158.798 41.8845C158.94 42.018 159.011 42.1785 159.011 42.366C159.011 42.5535 158.94 42.714 158.798 42.8476C158.658 42.9811 158.491 43.0478 158.295 43.0478ZM165.268 45.6047L164.364 45.8603C164.307 45.7098 164.223 45.5635 164.113 45.4214C164.005 45.2765 163.857 45.1572 163.67 45.0635C163.482 44.9697 163.242 44.9228 162.949 44.9228C162.549 44.9228 162.215 45.0152 161.948 45.1998C161.684 45.3816 161.552 45.6132 161.552 45.8944C161.552 46.1444 161.643 46.3419 161.824 46.4868C162.006 46.6316 162.29 46.7524 162.677 46.849L163.648 47.0876C164.233 47.2297 164.67 47.447 164.956 47.7396C165.243 48.0294 165.387 48.403 165.387 48.8603C165.387 49.2353 165.279 49.5706 165.063 49.866C164.85 50.1615 164.552 50.3944 164.168 50.5649C163.785 50.7353 163.339 50.8206 162.83 50.8206C162.162 50.8206 161.61 50.6757 161.172 50.3859C160.735 50.0961 160.458 49.6728 160.341 49.116L161.296 48.8774C161.387 49.2297 161.559 49.4939 161.812 49.67C162.067 49.8461 162.401 49.9342 162.813 49.9342C163.282 49.9342 163.654 49.8348 163.929 49.6359C164.208 49.4342 164.347 49.1927 164.347 48.9115C164.347 48.6842 164.268 48.4939 164.108 48.3405C163.949 48.1842 163.705 48.0677 163.375 47.991L162.285 47.7353C161.685 47.5933 161.245 47.3731 160.964 47.0748C160.685 46.7737 160.546 46.3973 160.546 45.9456C160.546 45.5762 160.65 45.2495 160.857 44.9655C161.067 44.6814 161.353 44.4584 161.714 44.2964C162.077 44.1345 162.489 44.0535 162.949 44.0535C163.597 44.0535 164.106 44.1956 164.475 44.4797C164.847 44.7637 165.111 45.1387 165.268 45.6047ZM173.02 50.8206C172.389 50.8206 171.845 50.6814 171.388 50.403C170.933 50.1217 170.582 49.7297 170.335 49.2268C170.091 48.7211 169.969 48.1331 169.969 47.4626C169.969 46.7922 170.091 46.2012 170.335 45.6899C170.582 45.1757 170.926 44.7751 171.367 44.4882C171.81 44.1984 172.327 44.0535 172.918 44.0535C173.259 44.0535 173.595 44.1103 173.928 44.224C174.26 44.3376 174.563 44.5223 174.835 44.778C175.108 45.0308 175.325 45.366 175.487 45.7836C175.649 46.2012 175.73 46.7155 175.73 47.3262V47.7524H170.685V46.8831H174.707C174.707 46.5137 174.634 46.1842 174.486 45.8944C174.341 45.6047 174.134 45.376 173.864 45.2084C173.597 45.0407 173.281 44.9569 172.918 44.9569C172.517 44.9569 172.171 45.0564 171.878 45.2552C171.588 45.4512 171.365 45.7069 171.209 46.0223C171.053 46.3376 170.975 46.6757 170.975 47.0365V47.616C170.975 48.1103 171.06 48.5294 171.23 48.8731C171.404 49.214 171.644 49.474 171.95 49.653C172.257 49.8291 172.614 49.9172 173.02 49.9172C173.284 49.9172 173.523 49.8802 173.736 49.8064C173.952 49.7297 174.138 49.616 174.294 49.4655C174.45 49.312 174.571 49.1217 174.656 48.8944L175.628 49.1672C175.526 49.4967 175.354 49.7865 175.112 50.0365C174.871 50.2836 174.573 50.4768 174.217 50.616C173.862 50.7524 173.463 50.8206 173.02 50.8206ZM177.834 44.1387L179.402 46.8149L180.971 44.1387H182.13L180.016 47.4115L182.13 50.6842H180.971L179.402 48.1444L177.834 50.6842H176.675L178.755 47.4115L176.675 44.1387H177.834ZM183.565 53.1387V44.1387H184.536V45.1785H184.656C184.73 45.0649 184.832 44.92 184.962 44.7439C185.096 44.5649 185.286 44.4058 185.533 44.2666C185.783 44.1245 186.122 44.0535 186.548 44.0535C187.099 44.0535 187.585 44.1913 188.005 44.4669C188.426 44.7424 188.754 45.1331 188.989 45.6387C189.225 46.1444 189.343 46.741 189.343 47.4285C189.343 48.1217 189.225 48.7226 188.989 49.2311C188.754 49.7368 188.427 50.1288 188.009 50.4072C187.592 50.6828 187.11 50.8206 186.565 50.8206C186.144 50.8206 185.808 50.751 185.555 50.6118C185.302 50.4697 185.107 50.3092 184.971 50.1302C184.835 49.9484 184.73 49.7978 184.656 49.6785H184.57V53.1387H183.565ZM184.553 47.4115C184.553 47.9058 184.626 48.3419 184.771 48.7197C184.916 49.0947 185.127 49.3887 185.406 49.6018C185.684 49.812 186.025 49.9172 186.428 49.9172C186.849 49.9172 187.2 49.8064 187.481 49.5848C187.765 49.3603 187.978 49.0592 188.12 48.6814C188.265 48.3007 188.337 47.8774 188.337 47.4115C188.337 46.9512 188.266 46.5365 188.124 46.1672C187.985 45.795 187.774 45.501 187.489 45.2851C187.208 45.0663 186.855 44.9569 186.428 44.9569C186.019 44.9569 185.676 45.0606 185.397 45.268C185.119 45.4726 184.908 45.7595 184.766 46.1288C184.624 46.4953 184.553 46.9228 184.553 47.4115ZM191.883 41.9569V50.6842H190.877V41.9569H191.883ZM195.651 50.8376C195.236 50.8376 194.86 50.7595 194.522 50.6032C194.184 50.4441 193.915 50.2155 193.716 49.9172C193.518 49.616 193.418 49.2524 193.418 48.8262C193.418 48.4512 193.492 48.1473 193.64 47.9143C193.787 47.6785 193.985 47.4939 194.232 47.3603C194.479 47.2268 194.752 47.1274 195.05 47.062C195.351 46.9939 195.654 46.9399 195.958 46.9001C196.356 46.849 196.678 46.8106 196.925 46.7851C197.175 46.7566 197.357 46.7098 197.471 46.6444C197.587 46.5791 197.645 46.4655 197.645 46.3035V46.2694C197.645 45.849 197.53 45.5223 197.3 45.2893C197.073 45.0564 196.728 44.9399 196.265 44.9399C195.785 44.9399 195.408 45.045 195.135 45.2552C194.863 45.4655 194.671 45.6899 194.56 45.9285L193.606 45.5876C193.776 45.1899 194.003 44.8802 194.287 44.6586C194.574 44.4342 194.887 44.278 195.225 44.1899C195.566 44.099 195.901 44.0535 196.231 44.0535C196.441 44.0535 196.682 44.0791 196.955 44.1302C197.231 44.1785 197.496 44.2794 197.752 44.4328C198.01 44.5862 198.225 44.8177 198.395 45.1274C198.566 45.437 198.651 45.8518 198.651 46.3717V50.6842H197.645V49.7978H197.594C197.526 49.9399 197.412 50.0919 197.253 50.2538C197.094 50.4157 196.883 50.5535 196.618 50.6672C196.354 50.7808 196.032 50.8376 195.651 50.8376ZM195.804 49.9342C196.202 49.9342 196.537 49.8561 196.81 49.6998C197.086 49.5436 197.293 49.3419 197.432 49.0947C197.574 48.8476 197.645 48.5876 197.645 48.3149V47.3944C197.603 47.4456 197.509 47.4924 197.364 47.5351C197.222 47.5748 197.057 47.6103 196.87 47.6416C196.685 47.67 196.505 47.6956 196.329 47.7183C196.155 47.7382 196.015 47.7552 195.907 47.7694C195.645 47.8035 195.401 47.8589 195.174 47.9356C194.949 48.0095 194.768 48.1217 194.628 48.2723C194.492 48.42 194.424 48.6217 194.424 48.8774C194.424 49.2268 194.553 49.491 194.812 49.67C195.073 49.8461 195.404 49.9342 195.804 49.9342ZM200.487 50.6842V44.1387H201.492V50.6842H200.487ZM200.998 43.0478C200.802 43.0478 200.633 42.9811 200.491 42.8476C200.352 42.714 200.282 42.5535 200.282 42.366C200.282 42.1785 200.352 42.018 200.491 41.8845C200.633 41.751 200.802 41.6842 200.998 41.6842C201.194 41.6842 201.362 41.751 201.501 41.8845C201.643 42.018 201.714 42.1785 201.714 42.366C201.714 42.5535 201.643 42.714 201.501 42.8476C201.362 42.9811 201.194 43.0478 200.998 43.0478ZM204.34 46.7467V50.6842H203.334V44.1387H204.306V45.1615H204.391C204.545 44.8291 204.777 44.562 205.09 44.3603C205.402 44.1558 205.806 44.0535 206.3 44.0535C206.743 44.0535 207.131 44.1444 207.464 44.3262C207.796 44.5052 208.054 44.778 208.239 45.1444C208.424 45.5081 208.516 45.9683 208.516 46.5251V50.6842H207.51V46.5933C207.51 46.0791 207.377 45.6785 207.11 45.3916C206.843 45.1018 206.476 44.9569 206.01 44.9569C205.689 44.9569 205.402 45.0265 205.15 45.1657C204.9 45.3049 204.702 45.5081 204.557 45.7751C204.412 46.0422 204.34 46.366 204.34 46.7467ZM212.28 50.8376C211.865 50.8376 211.489 50.7595 211.151 50.6032C210.813 50.4441 210.544 50.2155 210.345 49.9172C210.146 49.616 210.047 49.2524 210.047 48.8262C210.047 48.4512 210.121 48.1473 210.269 47.9143C210.416 47.6785 210.614 47.4939 210.861 47.3603C211.108 47.2268 211.381 47.1274 211.679 47.062C211.98 46.9939 212.283 46.9399 212.587 46.9001C212.984 46.849 213.307 46.8106 213.554 46.7851C213.804 46.7566 213.986 46.7098 214.1 46.6444C214.216 46.5791 214.274 46.4655 214.274 46.3035V46.2694C214.274 45.849 214.159 45.5223 213.929 45.2893C213.702 45.0564 213.357 44.9399 212.894 44.9399C212.413 44.9399 212.037 45.045 211.764 45.2552C211.492 45.4655 211.3 45.6899 211.189 45.9285L210.234 45.5876C210.405 45.1899 210.632 44.8802 210.916 44.6586C211.203 44.4342 211.516 44.278 211.854 44.1899C212.195 44.099 212.53 44.0535 212.859 44.0535C213.07 44.0535 213.311 44.0791 213.584 44.1302C213.859 44.1785 214.125 44.2794 214.381 44.4328C214.639 44.5862 214.854 44.8177 215.024 45.1274C215.195 45.437 215.28 45.8518 215.28 46.3717V50.6842H214.274V49.7978H214.223C214.155 49.9399 214.041 50.0919 213.882 50.2538C213.723 50.4157 213.511 50.5535 213.247 50.6672C212.983 50.7808 212.661 50.8376 212.28 50.8376ZM212.433 49.9342C212.831 49.9342 213.166 49.8561 213.439 49.6998C213.715 49.5436 213.922 49.3419 214.061 49.0947C214.203 48.8476 214.274 48.5876 214.274 48.3149V47.3944C214.232 47.4456 214.138 47.4924 213.993 47.5351C213.851 47.5748 213.686 47.6103 213.499 47.6416C213.314 47.67 213.134 47.6956 212.957 47.7183C212.784 47.7382 212.644 47.7552 212.536 47.7694C212.274 47.8035 212.03 47.8589 211.803 47.9356C211.578 48.0095 211.396 48.1217 211.257 48.2723C211.121 48.42 211.053 48.6217 211.053 48.8774C211.053 49.2268 211.182 49.491 211.44 49.67C211.702 49.8461 212.033 49.9342 212.433 49.9342ZM217.252 50.6842V41.9569H218.258V45.1785H218.343C218.417 45.0649 218.519 44.92 218.65 44.7439C218.783 44.5649 218.973 44.4058 219.221 44.2666C219.471 44.1245 219.809 44.0535 220.235 44.0535C220.786 44.0535 221.272 44.1913 221.692 44.4669C222.113 44.7424 222.441 45.1331 222.677 45.6387C222.912 46.1444 223.03 46.741 223.03 47.4285C223.03 48.1217 222.912 48.7226 222.677 49.2311C222.441 49.7368 222.114 50.1288 221.696 50.4072C221.279 50.6828 220.797 50.8206 220.252 50.8206C219.831 50.8206 219.495 50.751 219.242 50.6118C218.989 50.4697 218.795 50.3092 218.658 50.1302C218.522 49.9484 218.417 49.7978 218.343 49.6785H218.223V50.6842H217.252ZM218.241 47.4115C218.241 47.9058 218.313 48.3419 218.458 48.7197C218.603 49.0947 218.814 49.3887 219.093 49.6018C219.371 49.812 219.712 49.9172 220.116 49.9172C220.536 49.9172 220.887 49.8064 221.168 49.5848C221.452 49.3603 221.665 49.0592 221.807 48.6814C221.952 48.3007 222.025 47.8774 222.025 47.4115C222.025 46.9512 221.954 46.5365 221.812 46.1672C221.672 45.795 221.461 45.501 221.177 45.2851C220.895 45.0663 220.542 44.9569 220.116 44.9569C219.706 44.9569 219.363 45.0606 219.084 45.268C218.806 45.4726 218.596 45.7595 218.454 46.1288C218.312 46.4953 218.241 46.9228 218.241 47.4115ZM225.574 41.9569V50.6842H224.569V41.9569H225.574ZM230.161 50.8206C229.53 50.8206 228.986 50.6814 228.529 50.403C228.074 50.1217 227.723 49.7297 227.476 49.2268C227.232 48.7211 227.109 48.1331 227.109 47.4626C227.109 46.7922 227.232 46.2012 227.476 45.6899C227.723 45.1757 228.067 44.7751 228.507 44.4882C228.95 44.1984 229.467 44.0535 230.058 44.0535C230.399 44.0535 230.736 44.1103 231.068 44.224C231.401 44.3376 231.703 44.5223 231.976 44.778C232.249 45.0308 232.466 45.366 232.628 45.7836C232.79 46.2012 232.871 46.7155 232.871 47.3262V47.7524H227.825V46.8831H231.848C231.848 46.5137 231.774 46.1842 231.627 45.8944C231.482 45.6047 231.274 45.376 231.004 45.2084C230.737 45.0407 230.422 44.9569 230.058 44.9569C229.658 44.9569 229.311 45.0564 229.019 45.2552C228.729 45.4512 228.506 45.7069 228.35 46.0223C228.193 46.3376 228.115 46.6757 228.115 47.0365V47.616C228.115 48.1103 228.2 48.5294 228.371 48.8731C228.544 49.214 228.784 49.474 229.091 49.653C229.398 49.8291 229.754 49.9172 230.161 49.9172C230.425 49.9172 230.663 49.8802 230.877 49.8064C231.092 49.7297 231.279 49.616 231.435 49.4655C231.591 49.312 231.712 49.1217 231.797 48.8944L232.769 49.1672C232.666 49.4967 232.494 49.7865 232.253 50.0365C232.011 50.2836 231.713 50.4768 231.358 50.616C231.003 50.7524 230.604 50.8206 230.161 50.8206ZM240.622 44.1387V44.991H237.23V44.1387H240.622ZM238.219 42.5706H239.225V48.8092C239.225 49.0933 239.266 49.3064 239.348 49.4484C239.433 49.5876 239.541 49.6814 239.672 49.7297C239.806 49.7751 239.946 49.7978 240.094 49.7978C240.205 49.7978 240.296 49.7922 240.367 49.7808C240.438 49.7666 240.494 49.7552 240.537 49.7467L240.742 50.6501C240.673 50.6757 240.578 50.7012 240.456 50.7268C240.334 50.7552 240.179 50.7694 239.992 50.7694C239.707 50.7694 239.429 50.7084 239.156 50.5862C238.886 50.464 238.662 50.278 238.483 50.028C238.307 49.778 238.219 49.4626 238.219 49.0819V42.5706ZM244.724 50.8206C244.133 50.8206 243.614 50.6799 243.168 50.3987C242.725 50.1174 242.379 49.724 242.129 49.2183C241.882 48.7126 241.758 48.1217 241.758 47.4456C241.758 46.7637 241.882 46.1686 242.129 45.6601C242.379 45.1515 242.725 44.7566 243.168 44.4754C243.614 44.1941 244.133 44.0535 244.724 44.0535C245.315 44.0535 245.832 44.1941 246.275 44.4754C246.721 44.7566 247.068 45.1515 247.315 45.6601C247.565 46.1686 247.69 46.7637 247.69 47.4456C247.69 48.1217 247.565 48.7126 247.315 49.2183C247.068 49.724 246.721 50.1174 246.275 50.3987C245.832 50.6799 245.315 50.8206 244.724 50.8206ZM244.724 49.9172C245.173 49.9172 245.542 49.8021 245.832 49.572C246.122 49.3419 246.336 49.0393 246.475 48.6643C246.614 48.2893 246.684 47.8831 246.684 47.4456C246.684 47.0081 246.614 46.6004 246.475 46.2226C246.336 45.8447 246.122 45.5393 245.832 45.3064C245.542 45.0734 245.173 44.9569 244.724 44.9569C244.275 44.9569 243.906 45.0734 243.616 45.3064C243.326 45.5393 243.112 45.8447 242.972 46.2226C242.833 46.6004 242.764 47.0081 242.764 47.4456C242.764 47.8831 242.833 48.2893 242.972 48.6643C243.112 49.0393 243.326 49.3419 243.616 49.572C243.906 49.8021 244.275 49.9172 244.724 49.9172ZM76.4223 65.8206C75.7917 65.8206 75.2476 65.6814 74.7902 65.403C74.3357 65.1217 73.9848 64.7297 73.7377 64.2268C73.4934 63.7211 73.3712 63.1331 73.3712 62.4626C73.3712 61.7922 73.4934 61.2012 73.7377 60.6899C73.9848 60.1757 74.3286 59.7751 74.7689 59.4882C75.2121 59.1984 75.7292 59.0535 76.3201 59.0535C76.661 59.0535 76.9976 59.1103 77.33 59.224C77.6624 59.3376 77.965 59.5223 78.2377 59.778C78.5104 60.0308 78.7277 60.366 78.8897 60.7836C79.0516 61.2012 79.1326 61.7155 79.1326 62.3262V62.7524H74.0871V61.8831H78.1098C78.1098 61.5137 78.036 61.1842 77.8883 60.8944C77.7434 60.6047 77.536 60.376 77.2661 60.2084C76.999 60.0407 76.6837 59.9569 76.3201 59.9569C75.9195 59.9569 75.5729 60.0564 75.2803 60.2552C74.9905 60.4512 74.7675 60.7069 74.6113 61.0223C74.455 61.3376 74.3769 61.6757 74.3769 62.0365V62.616C74.3769 63.1103 74.4621 63.5294 74.6326 63.8731C74.8059 64.214 75.0459 64.474 75.3527 64.653C75.6596 64.8291 76.0161 64.9172 76.4223 64.9172C76.6865 64.9172 76.9252 64.8802 77.1383 64.8064C77.3542 64.7297 77.5402 64.616 77.6965 64.4655C77.8527 64.312 77.9735 64.1217 78.0587 63.8944L79.0303 64.1672C78.928 64.4967 78.7561 64.7865 78.5147 65.0365C78.2732 65.2836 77.9749 65.4768 77.6198 65.616C77.2647 65.7524 76.8655 65.8206 76.4223 65.8206ZM81.6681 61.7467V65.6842H80.6624V59.1387H81.634V60.1615H81.7192C81.8726 59.8291 82.1056 59.562 82.4181 59.3603C82.7306 59.1558 83.134 59.0535 83.6283 59.0535C84.0715 59.0535 84.4593 59.1444 84.7917 59.3262C85.124 59.5052 85.3826 59.778 85.5672 60.1444C85.7519 60.5081 85.8442 60.9683 85.8442 61.5251V65.6842H84.8385V61.5933C84.8385 61.0791 84.705 60.6785 84.438 60.3916C84.1709 60.1018 83.8044 59.9569 83.3385 59.9569C83.0175 59.9569 82.7306 60.0265 82.4777 60.1657C82.2277 60.3049 82.0303 60.5081 81.8854 60.7751C81.7405 61.0422 81.6681 61.366 81.6681 61.7467ZM90.1535 65.8206C89.6081 65.8206 89.1265 65.6828 88.7089 65.4072C88.2913 65.1288 87.9646 64.7368 87.7288 64.2311C87.493 63.7226 87.3751 63.1217 87.3751 62.4285C87.3751 61.741 87.493 61.1444 87.7288 60.6387C87.9646 60.1331 88.2927 59.7424 88.7132 59.4669C89.1336 59.1913 89.6194 59.0535 90.1706 59.0535C90.5967 59.0535 90.9333 59.1245 91.1805 59.2666C91.4305 59.4058 91.6208 59.5649 91.7515 59.7439C91.8851 59.92 91.9887 60.0649 92.0626 60.1785H92.1478V56.9569H93.1535V65.6842H92.1819V64.6785H92.0626C91.9887 64.7978 91.8836 64.9484 91.7473 65.1302C91.6109 65.3092 91.4163 65.4697 91.1635 65.6118C90.9106 65.751 90.574 65.8206 90.1535 65.8206ZM90.2899 64.9172C90.6933 64.9172 91.0342 64.812 91.3126 64.6018C91.591 64.3887 91.8027 64.0947 91.9476 63.7197C92.0924 63.3419 92.1649 62.9058 92.1649 62.4115C92.1649 61.9228 92.0939 61.4953 91.9518 61.1288C91.8098 60.7595 91.5995 60.4726 91.3211 60.268C91.0427 60.0606 90.699 59.9569 90.2899 59.9569C89.8637 59.9569 89.5086 60.0663 89.2245 60.2851C88.9433 60.501 88.7316 60.795 88.5896 61.1672C88.4504 61.5365 88.3808 61.9512 88.3808 62.4115C88.3808 62.8774 88.4518 63.3007 88.5939 63.6814C88.7387 64.0592 88.9518 64.3603 89.2331 64.5848C89.5172 64.8064 89.8694 64.9172 90.2899 64.9172ZM102.635 63.0081V59.1387H103.641V65.6842H102.635V64.5762H102.567C102.413 64.9086 102.175 65.1913 101.851 65.4243C101.527 65.6544 101.118 65.7694 100.624 65.7694C100.215 65.7694 99.851 65.6799 99.5328 65.501C99.2146 65.3191 98.9646 65.0464 98.7828 64.6828C98.601 64.3163 98.5101 63.8547 98.5101 63.2978V59.1387H99.5157V63.2297C99.5157 63.7069 99.6493 64.0876 99.9163 64.3717C100.186 64.6558 100.53 64.7978 100.948 64.7978C101.198 64.7978 101.452 64.7339 101.71 64.6061C101.972 64.4782 102.19 64.2822 102.367 64.018C102.546 63.7538 102.635 63.4172 102.635 63.0081ZM110.119 60.6047L109.216 60.8603C109.159 60.7098 109.075 60.5635 108.964 60.4214C108.856 60.2765 108.709 60.1572 108.521 60.0635C108.334 59.9697 108.094 59.9228 107.801 59.9228C107.4 59.9228 107.067 60.0152 106.799 60.1998C106.535 60.3816 106.403 60.6132 106.403 60.8944C106.403 61.1444 106.494 61.3419 106.676 61.4868C106.858 61.6316 107.142 61.7524 107.528 61.849L108.5 62.0876C109.085 62.2297 109.521 62.447 109.808 62.7396C110.095 63.0294 110.238 63.403 110.238 63.8603C110.238 64.2353 110.13 64.5706 109.915 64.866C109.701 65.1615 109.403 65.3944 109.02 65.5649C108.636 65.7353 108.19 65.8206 107.682 65.8206C107.014 65.8206 106.461 65.6757 106.024 65.3859C105.586 65.0961 105.309 64.6728 105.193 64.116L106.147 63.8774C106.238 64.2297 106.41 64.4939 106.663 64.67C106.919 64.8461 107.253 64.9342 107.665 64.9342C108.133 64.9342 108.505 64.8348 108.781 64.6359C109.059 64.4342 109.199 64.1927 109.199 63.9115C109.199 63.6842 109.119 63.4939 108.96 63.3405C108.801 63.1842 108.557 63.0677 108.227 62.991L107.136 62.7353C106.537 62.5933 106.096 62.3731 105.815 62.0748C105.537 61.7737 105.397 61.3973 105.397 60.9456C105.397 60.5762 105.501 60.2495 105.709 59.9655C105.919 59.6814 106.204 59.4584 106.565 59.2964C106.929 59.1345 107.341 59.0535 107.801 59.0535C108.449 59.0535 108.957 59.1956 109.326 59.4797C109.699 59.7637 109.963 60.1387 110.119 60.6047ZM114.497 65.8206C113.866 65.8206 113.322 65.6814 112.864 65.403C112.41 65.1217 112.059 64.7297 111.812 64.2268C111.568 63.7211 111.445 63.1331 111.445 62.4626C111.445 61.7922 111.568 61.2012 111.812 60.6899C112.059 60.1757 112.403 59.7751 112.843 59.4882C113.286 59.1984 113.803 59.0535 114.394 59.0535C114.735 59.0535 115.072 59.1103 115.404 59.224C115.737 59.3376 116.039 59.5223 116.312 59.778C116.585 60.0308 116.802 60.366 116.964 60.7836C117.126 61.2012 117.207 61.7155 117.207 62.3262V62.7524H112.161V61.8831H116.184C116.184 61.5137 116.11 61.1842 115.962 60.8944C115.818 60.6047 115.61 60.376 115.34 60.2084C115.073 60.0407 114.758 59.9569 114.394 59.9569C113.994 59.9569 113.647 60.0564 113.355 60.2552C113.065 60.4512 112.842 60.7069 112.685 61.0223C112.529 61.3376 112.451 61.6757 112.451 62.0365V62.616C112.451 63.1103 112.536 63.5294 112.707 63.8731C112.88 64.214 113.12 64.474 113.427 64.653C113.734 64.8291 114.09 64.9172 114.497 64.9172C114.761 64.9172 114.999 64.8802 115.212 64.8064C115.428 64.7297 115.614 64.616 115.771 64.4655C115.927 64.312 116.048 64.1217 116.133 63.8944L117.105 64.1672C117.002 64.4967 116.83 64.7865 116.589 65.0365C116.347 65.2836 116.049 65.4768 115.694 65.616C115.339 65.7524 114.94 65.8206 114.497 65.8206ZM118.737 65.6842V59.1387H119.708V60.1274H119.776C119.896 59.8035 120.112 59.5407 120.424 59.339C120.737 59.1373 121.089 59.0365 121.481 59.0365C121.555 59.0365 121.647 59.0379 121.758 59.0407C121.869 59.0436 121.953 59.0478 122.009 59.0535V60.0762C121.975 60.0677 121.897 60.0549 121.775 60.0379C121.656 60.018 121.529 60.0081 121.396 60.0081C121.078 60.0081 120.793 60.0748 120.543 60.2084C120.296 60.339 120.1 60.5209 119.955 60.7538C119.813 60.9839 119.742 61.2467 119.742 61.5422V65.6842H118.737ZM127.838 60.6047L126.934 60.8603C126.878 60.7098 126.794 60.5635 126.683 60.4214C126.575 60.2765 126.427 60.1572 126.24 60.0635C126.052 59.9697 125.812 59.9228 125.52 59.9228C125.119 59.9228 124.785 60.0152 124.518 60.1998C124.254 60.3816 124.122 60.6132 124.122 60.8944C124.122 61.1444 124.213 61.3419 124.395 61.4868C124.576 61.6316 124.861 61.7524 125.247 61.849L126.219 62.0876C126.804 62.2297 127.24 62.447 127.527 62.7396C127.814 63.0294 127.957 63.403 127.957 63.8603C127.957 64.2353 127.849 64.5706 127.633 64.866C127.42 65.1615 127.122 65.3944 126.738 65.5649C126.355 65.7353 125.909 65.8206 125.4 65.8206C124.733 65.8206 124.18 65.6757 123.743 65.3859C123.305 65.0961 123.028 64.6728 122.912 64.116L123.866 63.8774C123.957 64.2297 124.129 64.4939 124.382 64.67C124.638 64.8461 124.971 64.9342 125.383 64.9342C125.852 64.9342 126.224 64.8348 126.5 64.6359C126.778 64.4342 126.917 64.1927 126.917 63.9115C126.917 63.6842 126.838 63.4939 126.679 63.3405C126.52 63.1842 126.275 63.0677 125.946 62.991L124.855 62.7353C124.255 62.5933 123.815 62.3731 123.534 62.0748C123.255 61.7737 123.116 61.3973 123.116 60.9456C123.116 60.5762 123.22 60.2495 123.427 59.9655C123.638 59.6814 123.923 59.4584 124.284 59.2964C124.647 59.1345 125.059 59.0535 125.52 59.0535C126.167 59.0535 126.676 59.1956 127.045 59.4797C127.417 59.7637 127.682 60.1387 127.838 60.6047ZM130.204 65.7524C129.994 65.7524 129.813 65.6771 129.663 65.5265C129.512 65.376 129.437 65.1956 129.437 64.9853C129.437 64.7751 129.512 64.5947 129.663 64.4441C129.813 64.2936 129.994 64.2183 130.204 64.2183C130.414 64.2183 130.595 64.2936 130.745 64.4441C130.896 64.5947 130.971 64.7751 130.971 64.9853C130.971 65.1245 130.935 65.2524 130.864 65.3689C130.796 65.4853 130.704 65.5791 130.587 65.6501C130.474 65.7183 130.346 65.7524 130.204 65.7524Z" fill="white"/>
</svg>
